<svg width="4122" height="3783" viewBox="0 0 4122 3783" fill="none" xmlns="http://www.w3.org/2000/svg">
<g clip-path="url(#clip0_302_4714)">
<path d="M3709.36 483.392C3707.98 484.587 3706.05 485.094 3704.15 484.587C3696.84 482.601 3689.47 480.764 3682.24 479.121C3679.17 478.419 3677.24 475.358 3677.94 472.267C3678.63 469.176 3681.68 467.235 3684.75 467.936C3692.13 469.609 3699.66 471.491 3707.12 473.521C3710.16 474.343 3711.96 477.494 3711.13 480.555C3710.82 481.705 3710.18 482.675 3709.35 483.407L3709.36 483.392Z" fill="#030D36"/>
<path d="M3922.62 1429.72C3912.52 1438.46 3901.99 1446.91 3891.33 1454.84C3888.8 1456.72 3885.23 1456.18 3883.35 1453.64C3881.48 1451.1 3881.96 1447.53 3884.54 1445.62C3896.82 1436.48 3908.85 1426.67 3920.38 1416.47C3920.39 1416.46 3920.41 1416.44 3920.44 1416.43C3922.8 1414.38 3926.36 1414.62 3928.44 1416.98C3930.52 1419.36 3930.3 1422.99 3927.94 1425.08C3926.17 1426.64 3924.4 1428.18 3922.64 1429.72H3922.62ZM3980.96 1370.93C3978.86 1372.75 3975.7 1372.8 3973.53 1370.93C3971.14 1368.87 3970.86 1365.24 3972.91 1362.84C3982.86 1351.16 3992.44 1338.88 4001.38 1326.38C4003.2 1323.79 4006.78 1323.23 4009.34 1325.07C4011.89 1326.92 4012.47 1330.51 4010.63 1333.07C4001.5 1345.84 3991.71 1358.37 3981.56 1370.29C3981.37 1370.51 3981.16 1370.72 3980.94 1370.91L3980.96 1370.93ZM4049.6 1269.45C4047.88 1270.94 4045.35 1271.31 4043.21 1270.16C4040.42 1268.68 4039.37 1265.2 4040.84 1262.41C4048.01 1248.78 4054.66 1234.7 4060.63 1220.57C4061.85 1217.66 4065.21 1216.3 4068.12 1217.52C4071.01 1218.76 4072.36 1222.12 4071.13 1225.05C4065.04 1239.47 4058.24 1253.86 4050.92 1267.77C4050.58 1268.43 4050.12 1268.98 4049.6 1269.45ZM4094.23 1155.25C4092.84 1156.45 4090.91 1156.96 4089.03 1156.45C4085.98 1155.63 4084.19 1152.48 4084.99 1149.41C4088.94 1134.57 4092.31 1119.37 4094.98 1104.2C4095.53 1101.08 4098.49 1098.99 4101.59 1099.55C4104.7 1100.11 4106.76 1103.08 4106.21 1106.2C4103.48 1121.68 4100.05 1137.23 4096.01 1152.39C4095.7 1153.54 4095.06 1154.52 4094.23 1155.25ZM4112.33 1033.95C4111.27 1034.86 4109.89 1035.39 4108.41 1035.33C4105.26 1035.21 4102.79 1032.55 4102.91 1029.38C4103.48 1014.03 4103.37 998.443 4102.65 983.047C4102.5 979.881 4104.93 977.193 4108.07 977.029C4111.21 976.88 4113.89 979.314 4114.04 982.48C4114.79 998.189 4114.88 1014.11 4114.32 1029.79C4114.26 1031.44 4113.5 1032.92 4112.33 1033.92V1033.95ZM4103.17 911.593C4102.44 912.22 4101.53 912.683 4100.51 912.877C4097.42 913.46 4094.43 911.414 4093.84 908.308C4090.99 893.166 4087.47 877.979 4083.38 863.181C4082.54 860.134 4084.32 856.969 4087.35 856.117C4090.38 855.266 4093.53 857.058 4094.37 860.104C4098.55 875.217 4102.16 890.717 4105.05 906.187C4105.44 908.278 4104.65 910.309 4103.17 911.608V911.593ZM4067.34 794.28C4066.91 794.654 4066.44 794.952 4065.89 795.191C4062.99 796.446 4059.64 795.117 4058.39 792.22C4052.29 778.093 4045.51 764.071 4038.25 750.527C4036.75 747.734 4037.79 744.27 4040.57 742.762C4043.35 741.254 4046.79 742.299 4048.29 745.091C4055.72 758.919 4062.64 773.24 4068.86 787.65C4069.88 790.01 4069.19 792.683 4067.34 794.28ZM4006.51 687.883C4006.41 687.973 4006.29 688.063 4006.17 688.152C4003.63 690.034 4000.07 689.481 3998.2 686.928C3990.18 675.982 3981.65 665.215 3972.86 654.926C3971.69 653.553 3970.5 652.179 3969.31 650.82C3967.23 648.446 3967.47 644.817 3969.83 642.726C3969.85 642.726 3969.86 642.696 3969.88 642.682C3972.24 640.636 3975.82 640.875 3977.88 643.249C3979.1 644.638 3980.3 646.041 3981.51 647.445C3990.49 657.958 3999.19 668.949 4007.38 680.133C4009.16 682.567 4008.74 685.942 4006.5 687.883H4006.51ZM3923.57 597.868C3921.46 599.69 3918.3 599.735 3916.13 597.868C3904.56 587.848 3892.38 578.186 3879.95 569.137C3877.4 567.285 3876.82 563.687 3878.68 561.133C3880.55 558.579 3884.08 557.982 3886.64 559.849C3899.33 569.077 3911.76 578.948 3923.57 589.177C3925.96 591.253 3926.23 594.866 3924.18 597.271C3923.99 597.495 3923.78 597.689 3923.57 597.883V597.868ZM3822.84 528.564C3821.11 530.058 3818.57 530.431 3816.44 529.281C3802.88 522.024 3788.9 515.289 3774.87 509.256C3771.97 508.017 3770.62 504.642 3771.87 501.73C3773.11 498.818 3776.46 497.459 3779.35 498.714C3793.68 504.866 3807.97 511.75 3821.8 519.157C3824.57 520.65 3825.63 524.114 3824.16 526.922C3823.82 527.564 3823.37 528.116 3822.84 528.579V528.564Z" fill="#030D36"/>
<path d="M3827.6 1495.59C3827.31 1495.86 3826.97 1496.08 3826.59 1496.29C3819.78 1500.01 3812.89 1503.58 3806.12 1506.91C3803.28 1508.3 3799.86 1507.12 3798.48 1504.28C3797.09 1501.43 3798.29 1498.01 3801.1 1496.6C3807.73 1493.33 3814.48 1489.84 3821.16 1486.19C3823.92 1484.69 3827.4 1485.73 3828.9 1488.51C3830.2 1490.93 3829.59 1493.87 3827.6 1495.59Z" fill="#030D36"/>
<path d="M3401.84 1536.65C3400.38 1537.91 3398.35 1538.4 3396.39 1537.77C3389.14 1535.46 3381.81 1532.95 3374.57 1530.29C3371.62 1529.22 3370.09 1525.92 3371.16 1522.95C3372.24 1519.96 3375.51 1518.44 3378.46 1519.53C3385.55 1522.12 3392.74 1524.59 3399.83 1526.84C3402.83 1527.8 3404.5 1531.02 3403.55 1534.04C3403.22 1535.1 3402.61 1535.98 3401.84 1536.65Z" fill="#181F39"/>
<path d="M3312.23 1498.84C3310.5 1500.34 3307.98 1500.7 3305.84 1499.56C3292.28 1492.36 3278.83 1484.46 3265.85 1476.1C3263.19 1474.38 3262.42 1470.84 3264.12 1468.17C3265.83 1465.53 3269.35 1464.72 3272.01 1466.44C3284.74 1474.62 3297.91 1482.36 3311.19 1489.42C3313.98 1490.9 3315.03 1494.36 3313.56 1497.17C3313.22 1497.83 3312.76 1498.38 3312.24 1498.84H3312.23ZM3212.77 1431.14C3210.68 1432.94 3207.53 1433 3205.36 1431.15C3193.63 1421.12 3182.19 1410.49 3171.36 1399.54C3169.15 1397.3 3169.15 1393.66 3171.39 1391.43C3173.65 1389.16 3177.25 1389.21 3179.46 1391.46C3190.05 1402.18 3201.24 1412.61 3212.74 1422.42C3215.13 1424.46 3215.43 1428.09 3213.39 1430.51C3213.2 1430.73 3212.98 1430.96 3212.75 1431.15L3212.77 1431.14ZM3130.42 1343.23C3130.33 1343.32 3130.23 1343.39 3130.12 1343.47C3127.61 1345.36 3124.03 1344.86 3122.13 1342.33C3112.9 1329.98 3104.07 1317.08 3095.91 1303.97C3094.23 1301.28 3095.04 1297.74 3097.72 1296.06C3100.39 1294.37 3103.91 1295.19 3105.57 1297.86C3113.58 1310.7 3122.22 1323.34 3131.27 1335.43C3133.08 1337.87 3132.69 1341.27 3130.43 1343.23H3130.42ZM3069.31 1239.27C3068.91 1239.61 3068.45 1239.92 3067.93 1240.15C3065.06 1241.45 3061.67 1240.16 3060.38 1237.28C3054.07 1223.2 3048.26 1208.65 3043.15 1194.06C3042.1 1191.08 3043.66 1187.79 3046.63 1186.75C3049.6 1185.69 3052.85 1187.25 3053.91 1190.24C3058.93 1204.53 3064.6 1218.76 3070.78 1232.56C3071.83 1234.93 3071.16 1237.65 3069.29 1239.27H3069.31ZM3032.27 1124.4C3031.56 1125.01 3030.69 1125.46 3029.71 1125.67C3026.63 1126.31 3023.61 1124.33 3022.97 1121.22C3019.85 1106.08 3017.34 1090.62 3015.5 1075.27C3015.12 1072.12 3017.34 1069.27 3020.48 1068.9C3023.61 1068.52 3026.45 1070.76 3026.83 1073.9C3028.65 1088.94 3031.1 1104.06 3034.15 1118.89C3034.59 1121.01 3033.8 1123.09 3032.28 1124.4H3032.27ZM3020.97 1004.21C3019.94 1005.09 3018.61 1005.61 3017.17 1005.6C3014.02 1005.55 3011.51 1002.94 3011.55 999.772C3011.79 984.301 3012.69 968.666 3014.22 953.3C3014.55 950.15 3017.34 947.85 3020.46 948.163C3023.6 948.477 3025.88 951.284 3025.57 954.435C3024.07 969.473 3023.19 984.794 3022.96 999.936C3022.93 1001.64 3022.16 1003.16 3020.97 1004.19V1004.21ZM3036.07 884.475C3034.72 885.639 3032.86 886.147 3031.01 885.699C3027.95 884.952 3026.06 881.861 3026.8 878.77C3030.41 863.733 3034.7 848.666 3039.56 834.016C3040.57 831.015 3043.79 829.387 3046.78 830.388C3049.76 831.388 3051.38 834.644 3050.39 837.645C3045.63 851.996 3041.43 866.749 3037.9 881.473C3037.6 882.683 3036.95 883.713 3036.07 884.475ZM3077 770.985C3075.32 772.433 3072.87 772.836 3070.75 771.776C3067.93 770.372 3066.77 766.938 3068.16 764.086C3074.95 750.273 3082.42 736.52 3090.37 723.244C3091.97 720.511 3095.5 719.66 3098.19 721.288C3100.9 722.916 3101.76 726.44 3100.14 729.158C3092.36 742.164 3085.03 755.634 3078.38 769.163C3078.04 769.88 3077.55 770.492 3076.99 770.97L3077 770.985ZM3141.56 669.172C3139.51 670.934 3136.45 671.054 3134.27 669.292C3131.82 667.306 3131.41 663.692 3133.39 661.228C3143.06 649.132 3153.31 637.35 3163.88 626.18C3166.09 623.911 3169.67 623.791 3171.94 625.986C3174.23 628.166 3174.32 631.81 3172.14 634.095C3161.79 645.026 3151.75 656.569 3142.29 668.426C3142.06 668.709 3141.81 668.963 3141.56 669.187V669.172ZM3263.65 556.757C3263.47 556.907 3263.29 557.056 3263.08 557.19C3250.55 565.598 3238.22 574.647 3226.46 584.07C3224 586.041 3220.42 585.638 3218.44 583.159C3216.48 580.68 3216.81 577.066 3219.35 575.095C3231.36 565.463 3243.94 556.235 3256.76 547.648C3259.37 545.886 3262.92 546.603 3264.67 549.231C3266.29 551.665 3265.8 554.891 3263.65 556.757Z" fill="#181F39"/>
<path d="M3349.25 509.899C3348.82 510.272 3348.34 510.571 3347.79 510.809C3340.86 513.826 3333.97 517.022 3327.28 520.277C3324.45 521.651 3321.03 520.456 3319.67 517.619C3318.3 514.767 3319.46 511.332 3322.31 509.958C3329.13 506.643 3336.18 503.388 3343.25 500.297C3346.15 499.042 3349.5 500.371 3350.75 503.268C3351.77 505.628 3351.08 508.301 3349.23 509.899H3349.25Z" fill="#181F39"/>
<path d="M3445.78 604.184C3443.04 604.677 3440.9 606.872 3440.47 609.65L3428.13 688.854C3393.92 703.667 3361.83 724.066 3333.33 749.825L3256.69 727.933C3254 727.172 3251.12 728.202 3249.53 730.502L3194.83 809.392C3193.23 811.692 3193.27 814.768 3194.9 817.038L3241.85 881.772C3227.68 917.581 3219.75 954.913 3217.76 992.305L3148.12 1031.35C3145.69 1032.73 3144.38 1035.51 3144.87 1038.27L3161.68 1132.94C3162.17 1135.71 3164.36 1137.86 3167.12 1138.29L3245.89 1150.7C3260.62 1185.09 3280.91 1217.36 3306.53 1246.02L3284.75 1323.1C3284 1325.8 3285.02 1328.7 3287.31 1330.3L3365.77 1385.29C3368.05 1386.91 3371.11 1386.86 3373.37 1385.22L3437.75 1338.02C3473.36 1352.26 3510.49 1360.24 3547.68 1362.24L3586.51 1432.26C3587.88 1434.71 3590.64 1436.02 3593.39 1435.53L3687.55 1418.62C3690.29 1418.13 3692.43 1415.94 3692.86 1413.16L3705.2 1333.95C3739.41 1319.14 3771.5 1298.74 3800 1272.98L3876.66 1294.88C3879.35 1295.64 3882.23 1294.61 3883.82 1292.31L3938.51 1213.42C3940.12 1211.12 3940.07 1208.04 3938.43 1205.77L3891.48 1141.04C3905.65 1105.23 3913.58 1067.9 3915.57 1030.5L3985.21 991.454C3987.64 990.08 3988.95 987.303 3988.46 984.54L3971.65 889.865C3971.16 887.103 3968.97 884.953 3966.21 884.52L3887.44 872.11C3872.71 837.72 3852.42 805.45 3826.8 776.794L3848.58 699.71C3849.33 697.007 3848.31 694.11 3846.02 692.512L3767.56 637.515C3765.28 635.902 3762.22 635.947 3759.96 637.589L3695.58 684.792C3659.97 670.546 3622.84 662.572 3585.65 660.571L3546.82 590.551C3545.45 588.102 3542.7 586.788 3539.94 587.28L3445.78 604.184Z" fill="#181F39"/>
<path d="M3627.75 1082.62C3621.03 1088.43 3613.44 1093.31 3605.13 1097.07C3582.38 1107.41 3556.99 1108.2 3533.63 1099.31C3510.27 1090.44 3491.75 1072.94 3481.48 1050.07C3471.21 1027.17 3470.42 1001.64 3479.24 978.164C3488.06 954.674 3505.47 936.053 3528.22 925.719C3550.97 915.386 3576.38 914.594 3599.73 923.479C3623.09 932.35 3641.61 949.851 3651.87 972.728C3662.15 995.62 3662.94 1021.16 3654.11 1044.63C3648.51 1059.53 3639.44 1072.49 3627.75 1082.6V1082.62ZM3516.77 953.226C3507.22 961.484 3499.81 972.071 3495.24 984.256C3488.02 1003.45 3488.67 1024.29 3497.06 1043C3505.45 1061.7 3520.59 1075.99 3539.66 1083.23C3558.74 1090.49 3579.49 1089.83 3598.08 1081.39C3616.67 1072.96 3630.89 1057.76 3638.1 1038.55C3645.32 1019.36 3644.67 998.502 3636.28 979.806C3627.89 961.11 3612.75 946.82 3593.68 939.562C3574.6 932.305 3553.85 932.962 3535.26 941.399C3528.47 944.475 3522.28 948.462 3516.79 953.211L3516.77 953.226Z" fill="#030D36"/>
<path d="M3723.31 1195.84C3642.49 1265.73 3521.73 1274.88 3430.34 1210.82C3413.47 1198.99 3398.59 1185.37 3385.75 1170.38C3316.24 1089.12 3307.13 967.681 3370.84 875.769C3371.99 874.126 3373.16 872.484 3374.35 870.856C3382.34 859.91 3391.22 849.666 3400.83 840.318C3401.96 839.228 3403.09 838.138 3404.23 837.063L3415.89 849.651C3404.41 860.403 3393.97 872.499 3384.88 885.61C3384.79 885.729 3384.7 885.849 3384.63 885.983C3314.87 987.034 3339.72 1126.33 3440.12 1196.69C3540.65 1267.15 3679.42 1242.22 3749.5 1141.16C3808.65 1055.83 3800.2 943.071 3735.66 867.616C3723.75 853.698 3709.92 841.05 3694.27 830.074C3661.23 806.913 3622.63 793.205 3582.65 790.442L3583.82 773.27C3626.88 776.241 3668.46 790.995 3704.04 815.948C3720.91 827.775 3735.79 841.393 3748.63 856.386C3818.14 937.651 3827.25 1059.09 3763.54 1151C3751.77 1167.96 3738.22 1182.94 3723.31 1195.84Z" fill="#030D36"/>
<path d="M3258.87 64.5556C3258.04 65.2724 3256.88 65.586 3255.73 65.2724C3251.34 64.0778 3246.91 62.9727 3242.57 61.9872C3240.73 61.5691 3239.57 59.7174 3239.99 57.8657C3240.41 56.014 3242.25 54.8343 3244.09 55.2674C3248.53 56.2679 3253.06 57.4028 3257.53 58.6273C3259.36 59.1201 3260.44 61.0165 3259.94 62.8533C3259.76 63.5402 3259.37 64.1375 3258.87 64.5706V64.5556Z" fill="#030D36"/>
<path d="M3387.05 633.334C3380.97 638.591 3374.65 643.668 3368.25 648.431C3366.73 649.566 3364.58 649.238 3363.45 647.714C3362.32 646.191 3362.62 644.041 3364.16 642.891C3371.54 637.396 3378.78 631.497 3385.7 625.375C3385.7 625.375 3385.71 625.36 3385.73 625.345C3387.15 624.12 3389.29 624.255 3390.54 625.674C3391.79 627.107 3391.65 629.272 3390.23 630.542C3389.17 631.482 3388.1 632.408 3387.03 633.334H3387.05ZM3422.11 598.003C3420.85 599.093 3418.95 599.123 3417.66 598.003C3416.22 596.763 3416.05 594.583 3417.29 593.135C3423.27 586.116 3429.02 578.739 3434.39 571.228C3435.49 569.66 3437.65 569.332 3439.18 570.437C3440.71 571.542 3441.06 573.707 3439.96 575.245C3434.47 582.921 3428.6 590.447 3422.5 597.615C3422.38 597.749 3422.26 597.883 3422.13 597.988L3422.11 598.003ZM3463.37 537.002C3462.33 537.898 3460.81 538.122 3459.52 537.435C3457.84 536.554 3457.21 534.463 3458.1 532.776C3462.4 524.578 3466.41 516.126 3469.99 507.629C3470.72 505.882 3472.74 505.061 3474.49 505.807C3476.23 506.554 3477.05 508.57 3476.3 510.332C3472.65 519.008 3468.55 527.639 3464.16 536.002C3463.95 536.39 3463.68 536.733 3463.37 537.002ZM3490.19 468.37C3489.36 469.087 3488.2 469.401 3487.07 469.087C3485.24 468.594 3484.16 466.698 3484.65 464.861C3487.03 455.946 3489.05 446.807 3490.66 437.683C3490.99 435.802 3492.77 434.562 3494.64 434.891C3496.52 435.219 3497.75 437.011 3497.42 438.893C3495.77 448.211 3493.71 457.544 3491.29 466.653C3491.1 467.34 3490.72 467.937 3490.22 468.37H3490.19ZM3501.08 395.468C3500.45 396.021 3499.62 396.334 3498.71 396.304C3496.83 396.23 3495.34 394.632 3495.42 392.735C3495.76 383.507 3495.7 374.129 3495.25 364.886C3495.16 362.989 3496.63 361.376 3498.51 361.272C3500.39 361.182 3502.01 362.646 3502.1 364.542C3502.56 373.995 3502.62 383.552 3502.26 392.974C3502.23 393.975 3501.77 394.856 3501.08 395.468ZM3495.57 321.924C3495.12 322.312 3494.59 322.581 3493.96 322.7C3492.11 323.058 3490.31 321.819 3489.95 319.952C3488.24 310.843 3486.12 301.719 3483.67 292.819C3483.16 290.983 3484.23 289.086 3486.05 288.578C3487.87 288.071 3489.76 289.146 3490.26 290.968C3492.77 300.047 3494.94 309.365 3496.68 318.668C3496.92 319.923 3496.44 321.147 3495.54 321.924H3495.57ZM3474.03 251.41C3473.78 251.634 3473.48 251.814 3473.16 251.963C3471.42 252.725 3469.4 251.918 3468.64 250.171C3464.97 241.689 3460.9 233.252 3456.54 225.114C3455.63 223.441 3456.25 221.351 3457.93 220.44C3459.6 219.529 3461.68 220.156 3462.58 221.828C3467.04 230.131 3471.19 238.747 3474.94 247.408C3475.55 248.827 3475.15 250.44 3474.03 251.396V251.41ZM3437.47 187.453C3437.47 187.453 3437.33 187.557 3437.26 187.617C3435.73 188.752 3433.59 188.424 3432.46 186.885C3427.65 180.3 3422.53 173.834 3417.24 167.652C3416.54 166.831 3415.83 166.009 3415.12 165.188C3413.87 163.754 3414 161.574 3415.43 160.32C3415.43 160.32 3415.44 160.305 3415.46 160.29C3416.88 159.065 3419.02 159.2 3420.27 160.633C3421 161.47 3421.73 162.306 3422.45 163.157C3427.86 169.474 3433.09 176.074 3438 182.809C3439.07 184.272 3438.82 186.303 3437.48 187.468L3437.47 187.453ZM3387.61 133.351C3386.35 134.441 3384.45 134.471 3383.14 133.351C3376.19 127.333 3368.87 121.524 3361.4 116.089C3359.87 114.969 3359.51 112.818 3360.63 111.28C3361.76 109.742 3363.88 109.384 3365.41 110.504C3373.04 116.059 3380.51 121.987 3387.61 128.125C3389.05 129.364 3389.22 131.544 3387.97 132.993C3387.85 133.127 3387.73 133.246 3387.6 133.366L3387.61 133.351ZM3327.06 91.6883C3326.03 92.5842 3324.51 92.8082 3323.22 92.1213C3315.08 87.7609 3306.67 83.7141 3298.24 80.0854C3296.5 79.3388 3295.68 77.3079 3296.43 75.5607C3297.17 73.8136 3299.19 72.9923 3300.93 73.7389C3309.54 77.4423 3318.12 81.5787 3326.44 86.0287C3328.12 86.9247 3328.74 89.0153 3327.85 90.6878C3327.64 91.076 3327.38 91.4045 3327.06 91.6883Z" fill="#030D36"/>
<path d="M3329.94 672.922C3329.77 673.086 3329.56 673.22 3329.33 673.34C3325.24 675.565 3321.09 677.715 3317.02 679.716C3315.31 680.552 3313.27 679.851 3312.43 678.133C3311.6 676.416 3312.31 674.37 3314.01 673.519C3318 671.563 3322.06 669.457 3326.07 667.262C3327.73 666.351 3329.81 666.978 3330.72 668.651C3331.5 670.099 3331.13 671.876 3329.94 672.907V672.922Z" fill="#030D36"/>
<path d="M3074.05 697.591C3073.17 698.353 3071.95 698.637 3070.76 698.263C3066.41 696.875 3062 695.366 3057.65 693.769C3055.87 693.111 3054.95 691.14 3055.6 689.348C3056.25 687.556 3058.21 686.631 3060 687.288C3064.26 688.841 3068.58 690.334 3072.84 691.693C3074.64 692.275 3075.65 694.202 3075.07 696.023C3074.88 696.651 3074.51 697.188 3074.05 697.591Z" fill="#030D36"/>
<path d="M3020.18 674.879C3019.14 675.775 3017.63 675.999 3016.34 675.312C3008.18 670.981 3000.1 666.232 2992.29 661.215C2990.7 660.185 2990.23 658.049 2991.25 656.451C2992.28 654.854 2994.4 654.376 2995.99 655.406C3003.64 660.334 3011.55 664.978 3019.54 669.219C3021.22 670.1 3021.86 672.191 3020.97 673.878C3020.76 674.266 3020.49 674.61 3020.18 674.879ZM2960.41 634.186C2959.14 635.277 2957.26 635.306 2955.95 634.186C2948.9 628.154 2942.02 621.762 2935.52 615.177C2934.18 613.833 2934.19 611.638 2935.53 610.309C2936.9 608.95 2939.05 608.965 2940.39 610.324C2946.76 616.775 2953.49 623.032 2960.39 628.93C2961.83 630.155 2962.01 632.335 2960.78 633.783C2960.66 633.918 2960.52 634.052 2960.39 634.172L2960.41 634.186ZM2910.91 581.354C2910.91 581.354 2910.79 581.458 2910.73 581.503C2909.21 582.653 2907.06 582.339 2905.93 580.816C2900.38 573.395 2895.08 565.63 2890.16 557.76C2889.15 556.147 2889.64 554.012 2891.24 553.011C2892.85 551.996 2894.96 552.489 2895.97 554.101C2900.78 561.822 2905.98 569.408 2911.4 576.68C2912.5 578.143 2912.26 580.189 2910.89 581.369L2910.91 581.354ZM2874.18 518.875C2873.94 519.084 2873.66 519.263 2873.35 519.412C2871.63 520.189 2869.59 519.412 2868.82 517.68C2865.02 509.213 2861.54 500.477 2858.47 491.712C2857.84 489.92 2858.76 487.949 2860.56 487.306C2862.34 486.664 2864.3 487.605 2864.94 489.412C2867.96 497.998 2871.37 506.555 2875.09 514.858C2875.72 516.276 2875.32 517.919 2874.19 518.89L2874.18 518.875ZM2851.92 449.84C2851.49 450.213 2850.97 450.482 2850.37 450.601C2848.52 450.99 2846.71 449.795 2846.32 447.928C2844.45 438.834 2842.93 429.546 2841.83 420.318C2841.61 418.421 2842.95 416.719 2844.82 416.48C2846.71 416.256 2848.41 417.6 2848.64 419.496C2849.72 428.531 2851.21 437.625 2853.03 446.54C2853.3 447.809 2852.82 449.063 2851.9 449.855L2851.92 449.84ZM2845.13 377.595C2844.52 378.132 2843.72 378.446 2842.84 378.431C2840.94 378.401 2839.44 376.833 2839.47 374.922C2839.62 365.618 2840.16 356.226 2841.08 346.997C2841.27 345.101 2842.95 343.727 2844.83 343.906C2846.72 344.1 2848.09 345.787 2847.91 347.684C2847 356.733 2846.48 365.932 2846.33 375.041C2846.32 376.071 2845.86 376.982 2845.15 377.595H2845.13ZM2854.21 305.633C2853.4 306.335 2852.27 306.648 2851.16 306.38C2849.32 305.932 2848.19 304.065 2848.64 302.213C2850.8 293.179 2853.39 284.115 2856.3 275.304C2856.91 273.497 2858.84 272.527 2860.64 273.124C2862.43 273.721 2863.4 275.678 2862.8 277.484C2859.95 286.116 2857.43 294.971 2855.29 303.826C2855.11 304.558 2854.73 305.17 2854.19 305.633H2854.21ZM2878.8 237.419C2877.79 238.301 2876.32 238.525 2875.04 237.897C2873.35 237.046 2872.65 234.985 2873.48 233.283C2877.57 224.98 2882.05 216.722 2886.83 208.733C2887.8 207.091 2889.92 206.583 2891.54 207.554C2893.16 208.539 2893.68 210.66 2892.71 212.287C2888.04 220.112 2883.64 228.191 2879.65 236.329C2879.44 236.762 2879.14 237.121 2878.81 237.419H2878.8ZM2917.6 176.224C2916.37 177.285 2914.53 177.359 2913.22 176.299C2911.75 175.105 2911.52 172.939 2912.7 171.446C2918.51 164.174 2924.67 157.095 2931.03 150.376C2932.35 149.017 2934.51 148.942 2935.87 150.256C2937.24 151.57 2937.3 153.75 2935.99 155.124C2929.77 161.695 2923.74 168.639 2918.05 175.762C2917.92 175.926 2917.77 176.075 2917.6 176.224ZM2990.98 108.653C2990.88 108.743 2990.76 108.832 2990.64 108.907C2983.11 113.954 2975.7 119.39 2968.63 125.064C2967.15 126.244 2964.99 126.005 2963.82 124.512C2962.63 123.019 2962.84 120.853 2964.37 119.674C2971.59 113.88 2979.16 108.34 2986.86 103.173C2988.43 102.113 2990.55 102.546 2991.61 104.128C2992.57 105.592 2992.29 107.533 2991 108.653H2990.98Z" fill="#030D36"/>
<path d="M3042.44 80.49C3042.19 80.714 3041.9 80.8932 3041.57 81.0425C3037.41 82.8643 3033.25 84.7757 3029.24 86.732C3027.53 87.5682 3025.48 86.8514 3024.67 85.1341C3023.84 83.4168 3024.55 81.3561 3026.26 80.5199C3030.36 78.5189 3034.59 76.5776 3038.85 74.711C3040.59 73.9494 3042.61 74.7558 3043.37 76.5029C3043.97 77.9215 3043.57 79.5343 3042.46 80.49H3042.44Z" fill="#030D36"/>
<path d="M3100.47 137.16C3098.82 137.459 3097.53 138.773 3097.27 140.445L3089.86 188.051C3069.31 196.951 3050.02 209.211 3032.88 224.697L2986.81 211.541C2985.19 211.078 2983.47 211.705 2982.5 213.079L2949.64 260.491C2948.67 261.88 2948.7 263.716 2949.68 265.09L2977.9 304.005C2969.39 325.524 2964.62 347.968 2963.42 370.442L2921.57 393.916C2920.1 394.738 2919.31 396.41 2919.61 398.068L2929.71 454.962C2930 456.62 2931.31 457.919 2932.97 458.173L2980.32 465.624C2989.17 486.291 3001.36 505.689 3016.76 522.922L3003.68 569.243C3003.22 570.871 3003.84 572.603 3005.21 573.574L3052.36 606.621C3053.74 607.591 3055.57 607.561 3056.94 606.576L3095.64 578.203C3117.04 586.76 3139.36 591.553 3161.71 592.763L3185.06 634.844C3185.87 636.322 3187.54 637.113 3189.19 636.815L3245.77 626.66C3247.42 626.362 3248.71 625.048 3248.96 623.375L3256.37 575.769C3276.93 566.869 3296.22 554.609 3313.36 539.124L3359.42 552.28C3361.04 552.743 3362.77 552.115 3363.73 550.742L3396.6 503.33C3397.56 501.941 3397.53 500.104 3396.55 498.73L3368.34 459.815C3376.84 438.297 3381.61 415.853 3382.82 393.379L3424.67 369.904C3426.14 369.083 3426.92 367.41 3426.63 365.753L3416.53 308.859C3416.23 307.201 3414.92 305.902 3413.26 305.648L3365.91 298.196C3357.06 277.529 3344.87 258.132 3329.47 240.899L3342.55 194.577C3343.01 192.949 3342.39 191.217 3341.02 190.247L3293.87 157.2C3292.49 156.229 3290.66 156.259 3289.3 157.245L3250.6 185.617C3229.2 177.061 3206.87 172.267 3184.52 171.058L3161.18 128.977C3160.36 127.499 3158.7 126.707 3157.05 127.006L3100.47 137.16Z" fill="#181F39"/>
<path d="M3209.83 424.707C3205.79 428.202 3201.23 431.129 3196.23 433.398C3182.55 439.611 3167.28 440.088 3153.25 434.742C3139.21 429.411 3128.07 418.899 3121.91 405.145C3115.73 391.392 3115.26 376.041 3120.56 361.93C3125.86 347.818 3136.32 336.618 3149.99 330.406C3163.67 324.194 3178.94 323.716 3192.97 329.062C3207.01 334.393 3218.15 344.906 3224.31 358.659C3230.49 372.412 3230.96 387.763 3225.66 401.875C3222.29 410.835 3216.84 418.615 3209.81 424.693L3209.83 424.707ZM3143.13 346.937C3137.39 351.91 3132.94 358.256 3130.18 365.588C3125.85 377.116 3126.23 389.66 3131.28 400.889C3136.32 412.119 3145.42 420.72 3156.88 425.066C3168.35 429.426 3180.82 429.038 3191.99 423.961C3203.18 418.899 3211.72 409.745 3216.04 398.217C3220.37 386.688 3219.99 374.145 3214.94 362.915C3209.9 351.686 3200.8 343.084 3189.33 338.739C3177.87 334.378 3165.39 334.767 3154.23 339.844C3150.14 341.695 3146.41 344.085 3143.12 346.937H3143.13Z" fill="#030D36"/>
<path d="M3267.26 492.757C3218.68 534.763 3146.1 540.258 3091.17 501.761C3081.03 494.653 3072.09 486.47 3064.38 477.45C3022.59 428.605 3017.12 355.628 3055.41 300.376C3056.09 299.391 3056.8 298.405 3057.52 297.419C3062.33 290.849 3067.66 284.682 3073.44 279.067C3074.11 278.41 3074.79 277.753 3075.49 277.111L3082.5 284.682C3075.59 291.148 3069.32 298.42 3063.86 306.29C3063.8 306.364 3063.75 306.439 3063.71 306.514C3021.79 367.246 3036.73 450.974 3097.07 493.264C3157.48 535.599 3240.88 520.636 3283.02 459.889C3318.57 408.61 3313.49 340.829 3274.7 295.493C3267.54 287.131 3259.24 279.53 3249.82 272.93C3229.97 259.012 3206.76 250.769 3182.74 249.112L3183.44 238.793C3209.33 240.585 3234.3 249.455 3255.69 264.448C3265.83 271.556 3274.77 279.739 3282.48 288.758C3324.27 337.604 3329.74 410.581 3291.45 465.833C3284.38 476.032 3276.23 485.036 3267.27 492.787L3267.26 492.757Z" fill="#030D36"/>
<path d="M283.641 3556.22C283.641 3591.94 312.735 3621.17 348.303 3621.17H3844.61C3880.16 3621.17 3909.27 3591.94 3909.27 3556.22L3938.37 1535.92C3938.37 1500.2 3896.52 1430.47 3819.79 1435.71L402.821 1346.81C358.209 1345.65 315.066 1362.93 283.463 1394.58C251.875 1426.26 234.573 1469.55 235.628 1514.38L283.641 3556.22Z" fill="#090D1E"/>
<path d="M347.472 3493.91C347.472 3527.73 374.991 3555.42 408.643 3555.42H3760.29C3793.92 3555.42 3821.46 3527.73 3821.46 3493.91L3848.92 1659.87C3845.68 1549.5 3749.44 1509.84 3691.12 1512.18L416.262 1423.84C384.911 1422.99 354.615 1435.14 332.413 1457.41C310.21 1479.67 298.003 1510.15 298.79 1541.67L347.487 3493.92L347.472 3493.91Z" fill="#181F39"/>
<path d="M3785.24 2622.62H3785.15C3780.16 2622.55 3776.19 2618.45 3776.27 2613.47L3778.43 2464.73C3778.51 2459.81 3782.5 2455.85 3787.39 2455.85H3787.52C3792.47 2455.92 3796.43 2460.02 3796.36 2465L3794.19 2613.74C3794.12 2618.66 3790.12 2622.62 3785.24 2622.62Z" fill="#030D36"/>
<path d="M3790.55 2258.12H3790.42C3785.47 2258.05 3781.51 2253.94 3781.58 2248.97L3789.9 1679.29C3789.74 1645.46 3779.53 1618.44 3759.53 1599.18C3722.21 1563.22 3662.95 1565.06 3660.46 1565.18L2613.74 1536.95C2608.79 1536.83 2604.89 1532.68 2605.02 1527.71C2605.15 1522.74 2608.95 1518.5 2614.23 1518.94L3660.32 1547.17C3666.83 1546.78 3729.92 1545.69 3771.93 1586.16C3795.56 1608.93 3807.65 1640.3 3807.83 1679.38L3799.51 2249.24C3799.43 2254.17 3795.44 2258.12 3790.55 2258.12Z" fill="#030D36"/>
<path d="M8.39111 3788.88L4113.61 3788.88C4118.24 3788.88 4122 3785.1 4122 3780.44V3619.81C4122 3615.15 4118.24 3611.37 4113.61 3611.37L8.39111 3611.37C3.75684 3611.37 0 3615.15 0 3619.81V3780.44C0 3785.1 3.75684 3788.88 8.39111 3788.88Z" fill="#03050B"/>
<path d="M1026.05 667.873C1026.05 544.184 1125.77 443.895 1248.8 443.895H3143.04C3247.55 443.895 3333.72 526.234 3339.03 631.183L3478.86 3392.6C3483.01 3474.72 3418.72 3543.99 3336.95 3545.49L1165.91 3585.16C1089.09 3586.57 1026.05 3524.33 1026.05 3447.06V667.873Z" fill="#030D36"/>
<path d="M1483.21 3538.23H1483.13L1240.21 3535.08C1158.98 3534.02 1092.91 3466.7 1092.91 3385.03V3016.24C1092.91 3013.35 1095.22 3011.02 1098.09 3011.02C1100.96 3011.02 1103.27 3013.35 1103.27 3016.24V3385.03C1103.27 3461.04 1164.76 3523.67 1240.35 3524.66L1483.27 3527.81C1486.13 3527.84 1488.42 3530.21 1488.39 3533.09C1488.35 3535.94 1486.04 3538.24 1483.21 3538.24V3538.23Z" fill="#B2BBDF"/>
<path d="M1098.09 2907.19C1095.22 2907.19 1092.91 2904.86 1092.91 2901.98V2842.25C1092.91 2839.37 1095.22 2837.04 1098.09 2837.04C1100.96 2837.04 1103.27 2839.37 1103.27 2842.25V2901.98C1103.27 2904.86 1100.96 2907.19 1098.09 2907.19Z" fill="#B2BBDF"/>
<path d="M1181.24 486.408C1181 446.836 1215.62 416.209 1254.62 421.525C1513.3 456.796 2402.82 565.881 3138.26 509.121C3171.79 506.538 3200.9 532.088 3202.68 565.866L3349.29 3339.59C3351.3 3377.63 3322.43 3410.15 3284.62 3412.39C2975.3 3430.8 1701.46 3501.94 1247.09 3454.1C1219.44 3451.19 1198.45 3427.77 1198.29 3399.82L1181.24 486.408Z" fill="#082599"/>
<path d="M1211.7 555.907C1211.48 517.828 1244.79 488.35 1282.32 493.457C1531.25 527.4 2387.27 632.378 3095.03 577.754C3127.3 575.26 3155.31 599.854 3157.03 632.348L3298.12 3301.63C3300.05 3338.23 3272.26 3369.53 3235.87 3371.7C2938.21 3389.41 1712.33 3457.88 1275.07 3411.84C1248.45 3409.03 1228.26 3386.51 1228.09 3359.6L1211.68 555.907H1211.7Z" fill="#E6F8FC"/>
<path opacity="0.78" d="M1442.14 761.711L1468.58 1333.98C1469.45 1353.02 1484.75 1368.15 1503.69 1368.69C1609.08 1371.67 1937.53 1379.74 2122.98 1370.02C2143.96 1368.91 2160.55 1351.86 2161.25 1330.74C2164.78 1223.42 2172.52 911.054 2148.19 780.481C2144.26 759.381 2126.23 743.926 2104.9 743.179L1481.9 721.272C1459.43 720.481 1441.09 739.147 1442.13 761.726L1442.14 761.711Z" fill="#707070"/>
<g opacity="0.6">
<path d="M3000.83 811.527C3013.03 811.527 3022.78 802.881 3022.47 792.323C3022.15 781.766 3011.92 772.94 2999.71 772.731L2316.53 760.486C2304.32 760.262 2297.66 769.566 2301.71 781.139L2304.98 790.472C2309.03 802.045 2322.34 811.527 2334.55 811.527H3000.81H3000.83Z" fill="#707070"/>
</g>
<g opacity="0.6">
<path d="M2316.53 867.168C2304.32 866.944 2297.66 876.247 2301.71 887.82L2304.98 897.153C2309.03 908.726 2322.34 918.209 2334.55 918.209H3000.81C3013.02 918.209 3022.76 909.563 3022.45 899.005C3022.14 888.447 3011.91 879.622 2999.7 879.413L2316.52 867.168H2316.53Z" fill="#707070"/>
</g>
<g opacity="0.6">
<path d="M2316.53 975.4C2304.32 975.176 2297.66 984.48 2301.71 996.053L2304.98 1005.39C2309.03 1016.96 2322.34 1026.44 2334.55 1026.44H3000.81C3013.02 1026.44 3022.76 1017.79 3022.45 1007.24C3022.14 996.68 3011.91 987.854 2999.7 987.645L2316.52 975.4H2316.53Z" fill="#707070"/>
</g>
<g opacity="0.6">
<path d="M3067.18 1548.41C3079.39 1548.41 3088.81 1539.76 3088.12 1529.2C3087.42 1518.65 3076.88 1509.92 3064.67 1509.84L1464.17 1497.16C1451.96 1497.07 1448.19 1504.83 1455.79 1514.43L1468.88 1530.95C1476.48 1540.55 1492.68 1548.41 1504.89 1548.41H3067.18Z" fill="#707070"/>
</g>
<g opacity="0.6">
<path d="M1464.15 1634C1451.95 1633.91 1448.17 1641.68 1455.78 1651.28L1468.86 1667.79C1476.46 1677.4 1492.67 1685.25 1504.87 1685.25H3067.17C3079.37 1685.25 3088.79 1676.6 3088.11 1666.05C3087.41 1655.49 3076.86 1646.77 3064.66 1646.68L1464.15 1634Z" fill="#707070"/>
</g>
<path d="M1663.49 2331.35H1663.11L1528.03 2330.05C1508.72 2329.86 1492.8 2316.51 1490.97 2298.99L1479.09 2185.02C1478.4 2178.33 1480.46 2171.72 1484.92 2166.4C1489.89 2160.44 1497.42 2156.71 1505.59 2156.14C1516.96 2155.37 1532.99 2153.99 1549.96 2152.54C1585.7 2149.48 1630.16 2145.68 1655.17 2145.36C1673.32 2145.27 1688.72 2156.07 1692.99 2171.97C1700.03 2198.13 1699.41 2247.65 1698.07 2300.41C1697.64 2317.55 1682.15 2331.35 1663.49 2331.35ZM1506.3 2166.57C1500.94 2166.94 1496.04 2169.33 1492.86 2173.12C1490.25 2176.26 1489.01 2180.1 1489.42 2183.95L1501.3 2297.92C1502.57 2310.16 1514.11 2319.49 1528.13 2319.63L1663.22 2320.93H1663.49C1676.57 2320.93 1687.41 2311.65 1687.71 2300.14C1689.03 2248.19 1689.65 2199.51 1682.98 2174.69C1680 2163.58 1668.49 2155.83 1655.3 2155.8C1630.66 2156.11 1586.41 2159.91 1550.84 2162.94C1533.82 2164.4 1517.75 2165.78 1506.29 2166.55L1506.3 2166.57Z" fill="#707070"/>
<path opacity="0.6" d="M1520.82 2178.32C1549.2 2176.36 1610.88 2170.08 1640.12 2169.7C1652.52 2169.55 1663.39 2177.08 1666.29 2187.89C1671.93 2208.89 1671.19 2250.71 1670.21 2289.33C1669.91 2300.89 1659.36 2310.13 1646.45 2310L1538.5 2308.95C1525.22 2308.82 1514.2 2299.72 1512.97 2287.87L1503.48 2196.79C1502.5 2187.37 1510.28 2179.02 1520.81 2178.3L1520.82 2178.32Z" fill="#707070"/>
<g opacity="0.6">
<path d="M1782.13 2255.69C1786.04 2270.6 1799.51 2280.94 1814.85 2280.8L3064.67 2270.08C3078.81 2269.96 3090.13 2258.24 3089.82 2244.02C3089.52 2230.21 3078.32 2219.15 3064.57 2219.09L1814.72 2213.35C1792.65 2213.25 1776.5 2234.23 1782.13 2255.67V2255.69Z" fill="#707070"/>
</g>
<path d="M1663.49 2622.45H1663.11L1528.03 2621.15C1508.72 2620.96 1492.8 2607.61 1490.97 2590.09L1479.09 2476.13C1478.4 2469.44 1480.46 2462.82 1484.92 2457.51C1489.89 2451.55 1497.42 2447.81 1505.59 2447.25C1516.96 2446.47 1532.99 2445.1 1549.96 2443.65C1585.7 2440.59 1630.16 2436.78 1655.17 2436.46C1655.35 2436.46 1655.54 2436.46 1655.72 2436.46C1673.48 2436.46 1688.76 2447.34 1692.99 2463.08C1700.03 2489.24 1699.41 2538.76 1698.07 2591.51C1697.64 2608.66 1682.15 2622.45 1663.49 2622.45ZM1506.3 2457.67C1500.94 2458.04 1496.04 2460.43 1492.86 2464.23C1490.25 2467.36 1489.01 2471.2 1489.42 2475.05L1501.3 2589.02C1502.57 2601.26 1514.11 2610.6 1528.13 2610.73L1663.22 2612.03H1663.49C1676.57 2612.03 1687.41 2602.76 1687.71 2591.24C1689.03 2539.29 1689.65 2490.61 1682.98 2465.79C1679.98 2454.68 1668.33 2446.69 1655.3 2446.9C1630.66 2447.22 1586.41 2451.01 1550.84 2454.04C1533.82 2455.5 1517.75 2456.88 1506.29 2457.65L1506.3 2457.67Z" fill="#707070"/>
<path opacity="0.6" d="M1520.82 2469.44C1549.2 2467.48 1610.88 2461.19 1640.12 2460.82C1652.52 2460.67 1663.39 2468.2 1666.29 2479.01C1671.93 2500 1671.19 2541.83 1670.21 2580.45C1669.91 2592.01 1659.36 2601.25 1646.45 2601.12L1538.5 2600.07C1525.22 2599.94 1514.2 2590.84 1512.97 2578.98L1503.48 2487.91C1502.5 2478.49 1510.28 2470.15 1520.81 2469.42L1520.82 2469.44Z" fill="#707070"/>
<g opacity="0.6">
<path d="M1782.13 2546.79C1786.04 2561.71 1799.51 2572.04 1814.85 2571.91L3064.67 2561.18C3078.81 2561.06 3090.13 2549.34 3089.82 2535.13C3089.52 2521.31 3078.32 2510.25 3064.57 2510.19L1814.72 2504.45C1792.65 2504.35 1776.5 2525.33 1782.13 2546.77V2546.79Z" fill="#707070"/>
</g>
<path d="M1663.49 2913.57H1663.11L1528.03 2912.27C1508.72 2912.09 1492.8 2898.74 1490.97 2881.23L1479.09 2767.26C1478.4 2760.57 1480.46 2753.95 1484.92 2748.64C1489.89 2742.68 1497.42 2738.94 1505.59 2738.38C1516.96 2737.6 1532.99 2736.23 1549.96 2734.78C1585.7 2731.72 1630.16 2727.91 1655.17 2727.6C1655.35 2727.6 1655.54 2727.6 1655.72 2727.6C1673.48 2727.6 1688.76 2738.47 1692.99 2754.21C1700.03 2780.37 1699.41 2829.89 1698.07 2882.64C1697.64 2899.79 1682.15 2913.58 1663.49 2913.58V2913.57ZM1506.3 2748.79C1500.94 2749.16 1496.04 2751.55 1492.86 2755.34C1490.25 2758.48 1489.01 2762.31 1489.42 2766.17L1501.3 2880.14C1502.57 2892.38 1514.11 2901.71 1528.13 2901.85L1663.22 2903.15H1663.49C1676.57 2903.15 1687.41 2893.87 1687.71 2882.36C1689.03 2830.41 1689.65 2781.73 1682.98 2756.91C1679.98 2745.8 1668.33 2737.77 1655.3 2738.02C1630.66 2738.33 1586.41 2742.13 1550.84 2745.16C1533.82 2746.62 1517.75 2747.99 1506.29 2748.77L1506.3 2748.79Z" fill="#707070"/>
<path opacity="0.6" d="M1520.82 2760.54C1549.2 2758.58 1610.88 2752.3 1640.12 2751.92C1652.52 2751.77 1663.39 2759.3 1666.29 2770.11C1671.93 2791.11 1671.19 2832.93 1670.21 2871.55C1669.91 2883.11 1659.36 2892.35 1646.45 2892.22L1538.5 2891.17C1525.22 2891.04 1514.2 2881.94 1512.97 2870.09L1503.48 2779.01C1502.5 2769.59 1510.28 2761.26 1520.81 2760.52L1520.82 2760.54Z" fill="#707070"/>
<g opacity="0.6">
<path d="M1782.13 2837.89C1786.04 2852.81 1799.51 2863.14 1814.85 2863.01L3064.67 2852.29C3078.81 2852.17 3090.13 2840.44 3089.82 2826.23C3089.52 2812.41 3078.32 2801.35 3064.57 2801.29L1814.72 2795.56C1792.65 2795.45 1776.5 2816.43 1782.13 2837.88V2837.89Z" fill="#707070"/>
</g>
<path d="M1663.49 3204.67H1663.11L1528.03 3203.37C1508.72 3203.2 1492.8 3189.84 1490.97 3172.33L1479.09 3058.36C1478.4 3051.67 1480.46 3045.06 1484.92 3039.74C1489.89 3033.78 1497.42 3030.05 1505.59 3029.48C1516.96 3028.7 1532.99 3027.33 1549.96 3025.88C1585.7 3022.82 1630.16 3019.01 1655.17 3018.7C1655.35 3018.7 1655.54 3018.7 1655.72 3018.7C1673.48 3018.7 1688.76 3029.57 1692.99 3045.31C1700.03 3071.47 1699.41 3120.99 1698.07 3173.75C1697.64 3190.89 1682.15 3204.69 1663.49 3204.69V3204.67ZM1506.3 3039.89C1500.94 3040.26 1496.04 3042.65 1492.86 3046.44C1490.25 3049.58 1489.01 3053.42 1489.42 3057.27L1501.3 3171.24C1502.57 3183.48 1514.11 3192.82 1528.13 3192.95L1663.22 3194.25H1663.49C1676.57 3194.25 1687.41 3184.98 1687.71 3173.46C1689.03 3121.51 1689.65 3072.83 1682.98 3048.01C1679.98 3036.9 1668.33 3028.84 1655.3 3029.12C1630.66 3029.44 1586.41 3033.23 1550.84 3036.26C1533.82 3037.72 1517.75 3039.1 1506.29 3039.87L1506.3 3039.89Z" fill="#707070"/>
<path opacity="0.6" d="M1520.82 3051.64C1549.2 3049.68 1610.88 3043.4 1640.12 3043.02C1652.52 3042.87 1663.39 3050.4 1666.29 3061.21C1671.93 3082.21 1671.19 3124.03 1670.21 3162.65C1669.91 3174.21 1659.36 3183.45 1646.45 3183.32L1538.5 3182.27C1525.22 3182.14 1514.2 3173.04 1512.97 3161.19L1503.48 3070.11C1502.5 3060.69 1510.28 3052.36 1520.81 3051.63L1520.82 3051.64Z" fill="#707070"/>
<g opacity="0.6">
<path d="M1782.13 3129.01C1786.04 3143.92 1799.51 3154.26 1814.85 3154.12L3064.67 3143.4C3078.81 3143.28 3090.13 3131.56 3089.82 3117.34C3089.52 3103.53 3078.32 3092.47 3064.57 3092.41L1814.72 3086.67C1792.65 3086.57 1776.5 3107.55 1782.13 3128.99V3129.01Z" fill="#707070"/>
</g>
<path d="M1651.56 2078.06H1651.19L1516.1 2076.76C1496.8 2076.58 1480.88 2063.23 1479.05 2045.72L1467.17 1931.75C1466.47 1925.06 1468.53 1918.44 1472.99 1913.13C1477.97 1907.17 1485.49 1903.43 1493.66 1902.87C1505.04 1902.09 1521.06 1900.72 1538.04 1899.27C1573.77 1896.21 1618.23 1892.4 1643.24 1892.09C1643.42 1892.09 1643.61 1892.09 1643.79 1892.09C1661.55 1892.09 1676.84 1902.96 1681.07 1918.7C1688.11 1944.86 1687.48 1994.38 1686.15 2047.13C1685.72 2064.28 1670.23 2078.08 1651.56 2078.08V2078.06ZM1494.38 1913.28C1489.01 1913.65 1484.11 1916.04 1480.94 1919.83C1478.32 1922.97 1477.09 1926.8 1477.49 1930.66L1489.37 2044.63C1490.65 2056.87 1502.19 2066.2 1516.21 2066.34L1651.29 2067.64H1651.56C1664.64 2067.64 1675.48 2058.36 1675.78 2046.85C1677.1 1994.9 1677.73 1946.22 1671.06 1921.4C1668.06 1910.29 1656.4 1902.23 1643.38 1902.51C1618.74 1902.82 1574.48 1906.62 1538.91 1909.65C1521.89 1911.11 1505.83 1912.48 1494.36 1913.26L1494.38 1913.28Z" fill="#707070"/>
<path opacity="0.6" d="M1508.91 1925.03C1537.29 1923.07 1598.97 1916.79 1628.21 1916.41C1640.61 1916.26 1651.48 1923.79 1654.38 1934.6C1660.02 1955.6 1659.28 1997.42 1658.3 2036.04C1658 2047.6 1647.44 2056.84 1634.54 2056.71L1526.59 2055.66C1513.31 2055.53 1502.29 2046.43 1501.06 2034.58L1491.57 1943.5C1490.59 1934.08 1498.37 1925.75 1508.9 1925.01L1508.91 1925.03Z" fill="#707070"/>
<g opacity="0.6">
<path d="M1770.21 2002.38C1774.11 2017.3 1787.58 2027.63 1802.92 2027.5L3052.75 2016.78C3066.89 2016.66 3078.2 2004.93 3077.89 1990.72C3077.59 1976.9 3066.4 1965.84 3052.64 1965.78L1802.79 1960.05C1780.72 1959.94 1764.58 1980.92 1770.21 2002.37V2002.38Z" fill="#707070"/>
</g>
<path d="M2313.4 67.3912C2244.98 19.5313 2185.49 20.4721 2143.61 32.8962C2105.39 44.2303 2080.64 81.3236 2084.28 121.209L2102.33 319.429L2317.26 338.602C2317.26 338.602 2447.59 161.244 2313.4 67.3763V67.3912ZM2218.89 227.308C2189.29 227.308 2165.29 203.176 2165.29 173.415C2165.29 143.654 2189.29 119.522 2218.89 119.522C2248.48 119.522 2272.48 143.654 2272.48 173.415C2272.48 203.176 2248.48 227.308 2218.89 227.308Z" fill="#050812"/>
<path d="M2123.8 236.059C2121.14 236.059 2118.88 234.028 2118.64 231.325L2115.76 199.757C2115.5 196.89 2117.61 194.352 2120.46 194.083C2123.37 193.814 2125.83 195.935 2126.1 198.802L2128.98 230.37C2129.25 233.237 2127.14 235.775 2124.29 236.044C2124.12 236.059 2123.96 236.059 2123.81 236.059H2123.8ZM2118.15 174.192C2115.5 174.192 2113.24 172.161 2113 169.444L2110.82 145.476C2107.36 107.487 2131.13 72.096 2167.36 61.3593C2193 53.7435 2219.44 52.6534 2245.9 58.1188C2248.71 58.7012 2250.52 61.4489 2249.94 64.2712C2249.36 67.0935 2246.65 68.8855 2243.82 68.3329C2219.04 63.2259 2194.3 64.2413 2170.3 71.3643C2138.81 80.7123 2118.14 111.489 2121.15 144.535L2123.34 168.503C2123.6 171.37 2121.5 173.909 2118.64 174.177C2118.48 174.192 2118.32 174.192 2118.17 174.192H2118.15Z" fill="#B2BBDF"/>
<path d="M1809 447.538V347.876C1809 313.471 1837.35 285.919 1871.55 287.099L2554.91 310.648C2585.23 311.694 2609.8 335.765 2611.61 366.214L2617.33 461.978L1809 447.538Z" fill="#050812"/>
<path d="M2063.81 324.656H2034.42C2031.56 324.656 2029.24 322.326 2029.24 319.444C2029.24 316.562 2031.56 314.232 2034.42 314.232H2063.81C2066.68 314.232 2068.99 316.562 2068.99 319.444C2068.99 322.326 2066.68 324.656 2063.81 324.656Z" fill="#B2BBDF"/>
<path d="M1845.99 416.254C1843.13 416.254 1840.81 413.924 1840.81 411.042V370.724C1840.81 339.574 1866.01 314.232 1896.99 314.232H2005.03C2007.9 314.232 2010.22 316.562 2010.22 319.444C2010.22 322.326 2007.9 324.656 2005.03 324.656H1896.99C1871.73 324.656 1851.17 345.323 1851.17 370.724V411.042C1851.17 413.924 1848.86 416.254 1845.99 416.254Z" fill="#B2BBDF"/>
<g filter="url(#filter0_d_302_4714)">
<path d="M1530.55 472.714C1532.2 438.204 1560.51 411.071 1594.87 411.071L2789.87 411.041C2832.83 411.041 2869.57 442.131 2876.9 484.705L2877.91 490.574C2885.94 537.209 2850.22 579.857 2803.16 579.857H1577.17C1549 579.857 1526.56 556.174 1527.91 527.891L1530.55 472.714Z" fill="#030D36"/>
</g>
<path d="M1752.84 1133.94V1109.54C1752.84 1087.23 1756.24 1067.76 1763.07 1051.14C1769.89 1034.52 1782.32 1016.69 1800.35 997.617C1817.46 978.787 1828.37 964.033 1833.11 953.341C1837.85 942.649 1840.22 929.061 1840.22 912.545C1840.22 897.433 1836.76 885.128 1829.83 875.586C1822.89 866.059 1811.9 861.295 1796.89 861.295C1771.92 861.295 1745.68 870.24 1718.18 888.144L1685.58 818.408C1721.86 793.545 1762.09 781.105 1806.24 781.105C1844.38 781.105 1874.48 791.738 1896.57 813.002C1918.64 834.267 1929.69 863.849 1929.69 901.733C1929.69 928.224 1925.87 950.713 1918.25 969.2C1910.62 987.672 1894.79 1009.94 1870.74 1035.97C1855.25 1052.93 1845.38 1066.01 1841.1 1075.19C1836.82 1084.38 1834.68 1096.88 1834.68 1112.68V1133.94H1752.85H1752.84ZM1736.55 1250.39C1736.55 1232.03 1741.45 1217.91 1751.28 1208.02C1761.11 1198.14 1775.38 1193.21 1794.1 1193.21C1812.81 1193.21 1827.38 1198.27 1837.09 1208.38C1846.8 1218.49 1851.66 1232.5 1851.66 1250.39C1851.66 1268.28 1846.68 1282 1836.75 1292.23C1826.8 1302.46 1812.58 1307.56 1794.1 1307.56C1775.61 1307.56 1761.38 1302.56 1751.44 1292.57C1741.49 1282.58 1736.53 1268.52 1736.53 1250.39H1736.55Z" fill="#030D36"/>
</g>
<defs>
<filter id="filter0_d_302_4714" x="1523.85" y="411.041" width="1359.19" height="176.816" filterUnits="userSpaceOnUse" color-interpolation-filters="sRGB">
<feFlood flood-opacity="0" result="BackgroundImageFix"/>
<feColorMatrix in="SourceAlpha" type="matrix" values="0 0 0 0 0 0 0 0 0 0 0 0 0 0 0 0 0 0 127 0" result="hardAlpha"/>
<feOffset dy="4"/>
<feGaussianBlur stdDeviation="2"/>
<feComposite in2="hardAlpha" operator="out"/>
<feColorMatrix type="matrix" values="0 0 0 0 0 0 0 0 0 0 0 0 0 0 0 0 0 0 0.25 0"/>
<feBlend mode="normal" in2="BackgroundImageFix" result="effect1_dropShadow_302_4714"/>
<feBlend mode="normal" in="SourceGraphic" in2="effect1_dropShadow_302_4714" result="shape"/>
</filter>
<clipPath id="clip0_302_4714">
<rect width="4122" height="3783" fill="white"/>
</clipPath>
</defs>
</svg>
