<svg width="113" height="113" viewBox="0 0 113 113" fill="none" xmlns="http://www.w3.org/2000/svg">
<path d="M56.415 103.633C30.0852 103.633 8.6958 82.2629 8.6958 55.9142C8.6958 29.5654 30.0663 8.19495 56.415 8.19495C82.7638 8.19495 104.134 29.5654 104.134 55.9142C104.134 82.2629 82.7638 103.633 56.415 103.633ZM56.415 10.6935C31.4102 10.6935 10.9862 31.1176 10.9862 56.1224C10.9862 81.1272 31.4102 101.551 56.415 101.551C81.4198 101.551 101.844 81.1272 101.844 56.1224C101.844 31.1176 81.4198 10.6935 56.415 10.6935Z" fill="url(#paint0_linear_471_10383)"/>
<path d="M56.4166 89.3237C38.0936 89.3237 23.0264 74.2565 23.0264 55.9335C23.0264 37.6105 38.1125 22.5433 56.4166 22.5433C74.7206 22.5433 89.8068 37.6105 89.8068 55.9335C89.8068 74.2565 74.7396 89.3237 56.4166 89.3237ZM56.4166 25.004C39.2483 25.004 25.3167 38.9355 25.3167 56.1038C25.3167 73.2722 39.2483 87.2037 56.4166 87.2037C73.5849 87.2037 87.5164 73.2722 87.5164 56.1038C87.5164 38.9355 73.5849 25.004 56.4166 25.004Z" fill="url(#paint1_linear_471_10383)"/>
<path d="M56.4155 25.0048C55.8476 25.0048 55.2798 24.4369 55.2798 23.8501V1.13572C55.2798 0.567858 55.8476 0 56.4155 0C56.9834 0 57.5512 0.567858 57.5512 1.13572V23.8501C57.5512 24.418 56.9834 25.0048 56.4155 25.0048Z" fill="url(#paint2_linear_471_10383)"/>
<path d="M56.4155 112.04C55.8476 112.04 55.2798 111.472 55.2798 110.885V88.1705C55.2798 87.6027 55.8476 87.0348 56.4155 87.0348C56.9834 87.0348 57.5512 87.6027 57.5512 88.1705V110.885C57.5512 111.453 56.9834 112.04 56.4155 112.04Z" fill="url(#paint3_linear_471_10383)"/>
<path d="M111.364 57.068H88.6499C88.082 57.068 87.5142 56.5002 87.5142 55.9323C87.5142 55.3644 88.082 54.7776 88.6499 54.7776H111.364C111.932 54.7776 112.5 55.3455 112.5 55.9323C112.5 56.5191 111.932 57.068 111.364 57.068Z" fill="url(#paint4_linear_471_10383)"/>
<path d="M24.1609 57.068H1.63572C1.06786 57.068 0.5 56.5002 0.5 55.9323C0.5 55.3644 1.06786 54.7776 1.63572 54.7776H24.3501C24.918 54.7776 25.4859 55.3455 25.4859 55.9323C25.4859 56.5191 24.918 57.068 24.1419 57.068H24.1609Z" fill="url(#paint5_linear_471_10383)"/>
<path d="M50.4912 67.9453H42.0869C41.519 67.9453 40.9512 67.3774 40.9512 66.7906V48.8462C40.9512 48.2784 41.519 47.7105 42.0869 47.7105H50.4912C51.0591 47.7105 51.627 48.2784 51.627 48.8462V66.7906C51.627 67.3585 51.0591 67.9453 50.4912 67.9453ZM43.2415 65.4656H49.1662V50.0009H43.2415V65.4656Z" fill="url(#paint6_linear_471_10383)"/>
<path d="M58.8946 67.9483H50.4902C49.9223 67.9483 49.3545 67.3804 49.3545 66.7936V44.0792C49.3545 43.5113 49.9223 42.9435 50.4902 42.9435H58.8946C59.4624 42.9435 60.0303 43.5113 60.0303 44.0792V66.7936C60.0303 67.3615 59.4624 67.9483 58.8946 67.9483ZM51.6449 65.4686H57.5695V45.2339H51.6449V65.4686Z" fill="url(#paint7_linear_471_10383)"/>
<path d="M67.0912 67.948H58.6869C58.119 67.948 57.5322 67.3801 57.5322 66.7933V33.2138C57.5322 32.646 58.1001 32.0781 58.6869 32.0781H67.0912C67.6591 32.0781 68.2459 32.646 68.2459 33.2138V66.604C68.4352 67.3612 67.8673 67.948 67.0912 67.948ZM60.0308 65.4683H65.9555V34.5578H60.0308V65.4683Z" fill="url(#paint8_linear_471_10383)"/>
<path d="M75.4966 67.9459H67.0923C66.5244 67.9459 65.9565 67.378 65.9565 66.7913V50.0015C65.9565 49.4336 66.5244 48.8658 67.0923 48.8658H75.4966C76.0645 48.8658 76.6323 49.4336 76.6323 50.0015V66.7913C76.6323 67.3591 76.0645 67.9459 75.4966 67.9459ZM68.4362 65.4662H74.342V51.1562H68.4362V65.4662Z" fill="url(#paint9_linear_471_10383)"/>
<path d="M76.6322 73.8534H36.1816C35.6138 73.8534 35.0459 73.2855 35.0459 72.7176V42.7535C35.0459 42.1857 35.6138 41.6178 36.1816 41.6178C36.7495 41.6178 37.3173 42.1857 37.3173 42.7535V71.3737H76.6322C77.2001 71.3737 77.7679 71.9416 77.7679 72.5284C77.7679 73.1151 77.3894 73.8723 76.6322 73.8723V73.8534Z" fill="url(#paint10_linear_471_10383)"/>
<path d="M100.5 18.9099C97.2636 18.9099 94.5757 16.241 94.5757 12.9852C94.5757 9.72948 97.2446 7.07947 100.5 7.07947C103.756 7.07947 106.425 9.74841 106.425 12.9852C106.425 16.222 103.756 18.9099 100.5 18.9099ZM100.5 9.36984C98.5886 9.36984 96.8661 10.9031 96.8661 13.0041C96.8661 15.1052 98.3993 16.6385 100.5 16.6385C102.601 16.6385 104.135 15.1052 104.135 13.0041C104.135 10.9031 102.601 9.36984 100.5 9.36984Z" fill="url(#paint11_linear_471_10383)"/>
<path d="M12.3306 107.27C7.93911 107.27 4.32373 103.825 3.92622 99.6414C3.73694 97.3511 4.49409 95.25 5.83802 93.5275C7.37125 91.805 9.26411 90.8585 11.5545 90.6693H12.3116C16.7031 90.6693 20.3185 94.0953 20.716 98.2975C20.9053 100.588 20.1481 102.689 18.8042 104.411C17.271 106.134 15.3781 107.08 13.0877 107.27H12.3306ZM12.3306 92.9596H11.7627C10.2295 93.1489 8.71518 93.7168 7.74982 95.0607C6.80339 96.2154 6.21659 97.7297 6.40588 99.4522C6.59517 102.5 9.26412 104.979 12.3306 104.979H12.8984C14.4316 104.79 15.9459 104.033 16.9113 102.878C17.8577 101.743 18.4445 100.209 18.2552 98.4868C18.066 95.25 15.397 92.9596 12.3306 92.9596Z" fill="url(#paint12_linear_471_10383)"/>
<path d="M84.4686 2.31055C85.415 2.31055 86.1911 3.08662 86.1911 4.03306C86.1911 4.97949 85.415 5.75557 84.4686 5.75557C83.5222 5.75557 82.7461 4.97949 82.7461 4.03306C82.7461 3.08662 83.5222 2.31055 84.4686 2.31055Z" fill="url(#paint13_linear_471_10383)"/>
<path d="M107.182 33.4105C108.129 33.4105 108.905 34.1866 108.905 35.133C108.905 36.0795 108.129 36.8556 107.182 36.8556C106.236 36.8556 105.46 36.0795 105.46 35.133C105.46 34.1866 106.236 33.4105 107.182 33.4105Z" fill="url(#paint14_linear_471_10383)"/>
<path d="M99.9154 92.959C100.862 92.959 101.638 93.7351 101.638 94.6815C101.638 95.6279 100.862 96.404 99.9154 96.404C98.9689 96.404 98.1929 95.6279 98.1929 94.6815C98.1929 93.7351 98.9689 92.959 99.9154 92.959Z" fill="url(#paint15_linear_471_10383)"/>
<path d="M27.2088 103.635C28.1553 103.635 28.9313 104.411 28.9313 105.358C28.9313 106.304 28.1553 107.08 27.2088 107.08C26.2624 107.08 25.4863 106.304 25.4863 105.358C25.4863 104.411 26.2624 103.635 27.2088 103.635Z" fill="url(#paint16_linear_471_10383)"/>
<path d="M17.6683 5.92413C18.6147 5.92413 19.3908 6.70021 19.3908 7.64664C19.3908 8.59308 18.6147 9.36915 17.6683 9.36915C16.7219 9.36915 15.9458 8.59308 15.9458 7.64664C15.9458 6.70021 16.7219 5.92413 17.6683 5.92413Z" fill="url(#paint17_linear_471_10383)"/>
<path d="M5.64878 30.9276C6.59521 30.9276 7.37129 31.7037 7.37129 32.6501C7.37129 33.5966 6.59521 34.3726 5.64878 34.3726C4.70235 34.3726 3.92627 33.5966 3.92627 32.6501C3.92627 31.7037 4.70235 30.9276 5.64878 30.9276Z" fill="url(#paint18_linear_471_10383)"/>
<defs>
<linearGradient id="paint0_linear_471_10383" x1="56.415" y1="8.19495" x2="56.415" y2="103.633" gradientUnits="userSpaceOnUse">
<stop stop-color="#1A8598"/>
<stop offset="1" stop-color="#00FEFB"/>
</linearGradient>
<linearGradient id="paint1_linear_471_10383" x1="56.4166" y1="22.5433" x2="56.4166" y2="89.3237" gradientUnits="userSpaceOnUse">
<stop stop-color="#1A8598"/>
<stop offset="1" stop-color="#00FEFB"/>
</linearGradient>
<linearGradient id="paint2_linear_471_10383" x1="56.4155" y1="0" x2="56.4155" y2="25.0048" gradientUnits="userSpaceOnUse">
<stop stop-color="#1A8598"/>
<stop offset="1" stop-color="#00FEFB"/>
</linearGradient>
<linearGradient id="paint3_linear_471_10383" x1="56.4155" y1="87.0348" x2="56.4155" y2="112.04" gradientUnits="userSpaceOnUse">
<stop stop-color="#1A8598"/>
<stop offset="1" stop-color="#00FEFB"/>
</linearGradient>
<linearGradient id="paint4_linear_471_10383" x1="100.007" y1="54.7776" x2="100.007" y2="57.068" gradientUnits="userSpaceOnUse">
<stop stop-color="#1A8598"/>
<stop offset="1" stop-color="#00FEFB"/>
</linearGradient>
<linearGradient id="paint5_linear_471_10383" x1="12.9929" y1="54.7776" x2="12.9929" y2="57.068" gradientUnits="userSpaceOnUse">
<stop stop-color="#1A8598"/>
<stop offset="1" stop-color="#00FEFB"/>
</linearGradient>
<linearGradient id="paint6_linear_471_10383" x1="46.2891" y1="47.7105" x2="46.2891" y2="67.9453" gradientUnits="userSpaceOnUse">
<stop stop-color="#1A8598"/>
<stop offset="1" stop-color="#00FEFB"/>
</linearGradient>
<linearGradient id="paint7_linear_471_10383" x1="54.6924" y1="42.9435" x2="54.6924" y2="67.9483" gradientUnits="userSpaceOnUse">
<stop stop-color="#1A8598"/>
<stop offset="1" stop-color="#00FEFB"/>
</linearGradient>
<linearGradient id="paint8_linear_471_10383" x1="62.9074" y1="32.0781" x2="62.9074" y2="67.948" gradientUnits="userSpaceOnUse">
<stop stop-color="#1A8598"/>
<stop offset="1" stop-color="#00FEFB"/>
</linearGradient>
<linearGradient id="paint9_linear_471_10383" x1="71.2944" y1="48.8658" x2="71.2944" y2="67.9459" gradientUnits="userSpaceOnUse">
<stop stop-color="#1A8598"/>
<stop offset="1" stop-color="#00FEFB"/>
</linearGradient>
<linearGradient id="paint10_linear_471_10383" x1="56.4069" y1="41.6178" x2="56.4069" y2="73.8723" gradientUnits="userSpaceOnUse">
<stop stop-color="#1A8598"/>
<stop offset="1" stop-color="#00FEFB"/>
</linearGradient>
<linearGradient id="paint11_linear_471_10383" x1="100.5" y1="7.07947" x2="100.5" y2="18.9099" gradientUnits="userSpaceOnUse">
<stop stop-color="#1A8598"/>
<stop offset="1" stop-color="#00FEFB"/>
</linearGradient>
<linearGradient id="paint12_linear_471_10383" x1="12.3211" y1="90.6693" x2="12.3211" y2="107.27" gradientUnits="userSpaceOnUse">
<stop stop-color="#1A8598"/>
<stop offset="1" stop-color="#00FEFB"/>
</linearGradient>
<linearGradient id="paint13_linear_471_10383" x1="84.4686" y1="2.31055" x2="84.4686" y2="5.75557" gradientUnits="userSpaceOnUse">
<stop stop-color="#1A8598"/>
<stop offset="1" stop-color="#00FEFB"/>
</linearGradient>
<linearGradient id="paint14_linear_471_10383" x1="107.182" y1="33.4105" x2="107.182" y2="36.8556" gradientUnits="userSpaceOnUse">
<stop stop-color="#1A8598"/>
<stop offset="1" stop-color="#00FEFB"/>
</linearGradient>
<linearGradient id="paint15_linear_471_10383" x1="99.9154" y1="92.959" x2="99.9154" y2="96.404" gradientUnits="userSpaceOnUse">
<stop stop-color="#1A8598"/>
<stop offset="1" stop-color="#00FEFB"/>
</linearGradient>
<linearGradient id="paint16_linear_471_10383" x1="27.2088" y1="103.635" x2="27.2088" y2="107.08" gradientUnits="userSpaceOnUse">
<stop stop-color="#1A8598"/>
<stop offset="1" stop-color="#00FEFB"/>
</linearGradient>
<linearGradient id="paint17_linear_471_10383" x1="17.6683" y1="5.92413" x2="17.6683" y2="9.36915" gradientUnits="userSpaceOnUse">
<stop stop-color="#1A8598"/>
<stop offset="1" stop-color="#00FEFB"/>
</linearGradient>
<linearGradient id="paint18_linear_471_10383" x1="5.64878" y1="30.9276" x2="5.64878" y2="34.3726" gradientUnits="userSpaceOnUse">
<stop stop-color="#1A8598"/>
<stop offset="1" stop-color="#00FEFB"/>
</linearGradient>
</defs>
</svg>
