<svg width="287" height="292" viewBox="0 0 287 292" fill="none" xmlns="http://www.w3.org/2000/svg">
<g clip-path="url(#clip0_672_1721)">
<path d="M185.484 118.679C164.157 136.792 143.727 155.777 119.658 169.854C106.935 177.295 93.2076 179.467 78.9855 173.755C63.7465 167.655 57.0168 155.669 56.1605 139.929C55.3444 125.034 60.3884 111.064 63.6395 96.8258C64.2951 93.9433 65.2316 91.1278 66.2886 87.3872C70.1953 91.7713 73.7141 95.4448 76.818 99.4401C77.594 100.446 77.38 102.537 77.0856 104.025C75.2259 113.491 72.9782 122.876 71.3058 132.368C69.8073 140.895 71.7339 148.47 78.5975 154.503C84.0963 159.329 90.505 159.906 97.2748 159.517C109.035 158.847 118.534 152.344 128.569 147.277C146.671 138.146 164.719 128.922 182.795 119.752C183.651 119.323 184.574 119.041 185.471 118.679H185.484Z" fill="url(#paint0_linear_672_1721)"/>
<path d="M174.647 45.1013C190.755 66.6733 207.145 88.0307 222.812 109.911C229.783 119.658 232.311 131.242 230.344 143.241C227.16 162.641 213.005 174.774 193.324 175.043C175.851 175.27 159.448 169.626 141.426 165.202C146.203 160.965 149.989 157.345 154.123 154.168C155.073 153.43 157.227 154.06 158.779 154.355C169.201 156.313 179.544 159.075 190.06 160.188C203.466 161.595 213.152 152.465 213.567 138.991C213.835 130.531 211.493 122.675 207.573 115.073C195.906 92.4551 184.561 69.6765 173.122 46.9381C173.001 46.7102 173.189 46.3348 173.229 46.013C173.697 45.7046 174.179 45.3963 174.647 45.1013Z" fill="url(#paint1_linear_672_1721)"/>
<path d="M219.855 88.701C216.377 84.7057 212.831 81.0187 209.794 76.9296C208.965 75.8034 209.353 73.4706 209.7 71.8081C211.547 62.8522 213.835 53.9901 215.453 44.994C218.464 28.2486 207.76 15.7532 190.876 16.9732C184.427 17.4425 177.711 19.3865 171.891 22.2422C148.343 33.8125 125.09 45.9995 101.73 57.9452C101.195 58.2133 100.62 58.4144 99.6431 57.9988C105.61 53.0918 111.457 48.0106 117.585 43.3047C132.355 31.9623 146.992 20.4457 162.191 9.69319C172.921 2.1048 185.27 -1.63577 198.556 0.683651C220.203 4.47785 232.9 21.049 230.171 43.6533C228.405 58.267 224.244 72.5991 221.113 87.0519C221.019 87.4675 220.551 87.8027 219.855 88.7144V88.701Z" fill="url(#paint2_linear_672_1721)"/>
<path d="M144.57 11.8653C140.597 15.4182 137.158 18.7968 133.359 21.6793C132.208 22.5641 129.96 22.4971 128.341 22.1887C119.377 20.4592 110.507 18.2873 101.516 16.6784C83.3605 13.4339 70.851 24.9238 73.2324 43.1306C74.0352 49.2576 76.1357 55.4785 78.8517 61.0558C89.5551 83.0434 100.74 104.803 111.738 126.657C112.099 127.367 112.34 128.131 113.102 130.035C111.524 128.735 110.748 128.292 110.226 127.622C96.1109 109.509 81.8353 91.5032 67.9878 73.1892C60.6426 63.4959 55.8796 52.5691 56 39.9933C56.2141 18.6091 70.3961 -0.428966 97.7833 1.68935C112.875 2.85576 127.699 7.49461 142.63 10.5916C143.072 10.6855 143.447 11.1145 144.57 11.8653Z" fill="url(#paint3_linear_672_1721)"/>
<path d="M153.789 86.7035C153.708 93.5411 148.209 99.038 141.466 99.0648C134.79 99.0916 129.144 93.4472 129.077 86.7169C129.01 79.7854 134.897 73.9534 141.734 74.1545C148.624 74.369 153.869 79.8256 153.789 86.7035Z" fill="url(#paint4_linear_672_1721)"/>
</g>
<path d="M59.5909 247H47.5L63.2045 200.455H78.1818L93.8864 247H81.7955L70.8636 212.182H70.5L59.5909 247ZM57.9773 228.682H83.25V237.227H57.9773V228.682ZM91.5625 209.591V200.455H130.903V209.591H116.79V247H105.699V209.591H91.5625ZM178.205 223.727C178.205 228.848 177.22 233.189 175.25 236.75C173.28 240.311 170.614 243.015 167.25 244.864C163.902 246.712 160.144 247.636 155.977 247.636C151.795 247.636 148.03 246.705 144.682 244.841C141.333 242.977 138.674 240.273 136.705 236.727C134.75 233.167 133.773 228.833 133.773 223.727C133.773 218.606 134.75 214.265 136.705 210.705C138.674 207.144 141.333 204.439 144.682 202.591C148.03 200.742 151.795 199.818 155.977 199.818C160.144 199.818 163.902 200.742 167.25 202.591C170.614 204.439 173.28 207.144 175.25 210.705C177.22 214.265 178.205 218.606 178.205 223.727ZM166.705 223.727C166.705 220.697 166.273 218.136 165.409 216.045C164.561 213.955 163.333 212.371 161.727 211.295C160.136 210.22 158.22 209.682 155.977 209.682C153.75 209.682 151.833 210.22 150.227 211.295C148.621 212.371 147.386 213.955 146.523 216.045C145.674 218.136 145.25 220.697 145.25 223.727C145.25 226.758 145.674 229.318 146.523 231.409C147.386 233.5 148.621 235.083 150.227 236.159C151.833 237.235 153.75 237.773 155.977 237.773C158.22 237.773 160.136 237.235 161.727 236.159C163.333 235.083 164.561 233.5 165.409 231.409C166.273 229.318 166.705 226.758 166.705 223.727ZM184.773 200.455H198.705L210.523 229.273H211.068L222.886 200.455H236.818V247H225.864V218.409H225.477L214.295 246.705H207.295L196.114 218.25H195.727V247H184.773V200.455Z" fill="#00FEFB"/>
<path d="M0.208 266.634V263.8H12.896V266.634H8.086V282H4.992V266.634H0.208ZM29.5076 282V279.296H38.6856V282H29.5076ZM29.5076 266.504V263.8H38.6856V266.504H29.5076ZM29.5076 273.576V270.924H38.1656V273.576H29.5076ZM27.6096 263.8H30.6256V282H27.6096V263.8ZM57.2051 272.9C57.2051 274.183 57.4911 275.309 58.0631 276.28C58.6524 277.251 59.4151 278.005 60.3511 278.542C61.3044 279.062 62.3357 279.322 63.4451 279.322C64.3117 279.322 65.0917 279.209 65.7851 278.984C66.4784 278.759 67.1024 278.455 67.6571 278.074C68.2291 277.675 68.7231 277.233 69.1391 276.748V280.388C68.3764 281.012 67.5531 281.489 66.6691 281.818C65.7851 282.147 64.6757 282.312 63.3411 282.312C62.0064 282.312 60.7584 282.087 59.5971 281.636C58.4531 281.185 57.4564 280.535 56.6071 279.686C55.7577 278.837 55.0904 277.84 54.6051 276.696C54.1371 275.535 53.9031 274.269 53.9031 272.9C53.9031 271.531 54.1371 270.274 54.6051 269.13C55.0904 267.969 55.7577 266.963 56.6071 266.114C57.4564 265.265 58.4531 264.615 59.5971 264.164C60.7584 263.713 62.0064 263.488 63.3411 263.488C64.6757 263.488 65.7851 263.653 66.6691 263.982C67.5531 264.311 68.3764 264.788 69.1391 265.412V269.052C68.7231 268.567 68.2291 268.133 67.6571 267.752C67.1024 267.353 66.4784 267.041 65.7851 266.816C65.0917 266.591 64.3117 266.478 63.4451 266.478C62.3357 266.478 61.3044 266.747 60.3511 267.284C59.4151 267.804 58.6524 268.549 58.0631 269.52C57.4911 270.473 57.2051 271.6 57.2051 272.9ZM86.6216 273.654V270.82H99.5956V273.654H86.6216ZM97.6196 263.8H100.688V282H97.6196V263.8ZM85.3996 263.8H88.4676V282H85.3996V263.8ZM130.513 263.8H133.529V282.91L120.243 269.78V282H117.227V262.89L130.513 276.02V263.8ZM152.255 272.9C152.255 274.148 152.515 275.266 153.035 276.254C153.573 277.225 154.309 277.987 155.245 278.542C156.181 279.097 157.247 279.374 158.443 279.374C159.657 279.374 160.723 279.097 161.641 278.542C162.577 277.987 163.305 277.225 163.825 276.254C164.363 275.266 164.631 274.148 164.631 272.9C164.631 271.652 164.371 270.543 163.851 269.572C163.331 268.584 162.603 267.813 161.667 267.258C160.749 266.703 159.674 266.426 158.443 266.426C157.247 266.426 156.181 266.703 155.245 267.258C154.309 267.813 153.573 268.584 153.035 269.572C152.515 270.543 152.255 271.652 152.255 272.9ZM149.005 272.9C149.005 271.531 149.239 270.274 149.707 269.13C150.175 267.986 150.834 266.998 151.683 266.166C152.55 265.317 153.555 264.658 154.699 264.19C155.861 263.722 157.109 263.488 158.443 263.488C159.813 263.488 161.069 263.722 162.213 264.19C163.357 264.658 164.354 265.317 165.203 266.166C166.07 266.998 166.737 267.986 167.205 269.13C167.673 270.274 167.907 271.531 167.907 272.9C167.907 274.252 167.673 275.509 167.205 276.67C166.737 277.831 166.079 278.837 165.229 279.686C164.38 280.535 163.375 281.203 162.213 281.688C161.069 282.156 159.813 282.39 158.443 282.39C157.091 282.39 155.835 282.156 154.673 281.688C153.512 281.203 152.507 280.535 151.657 279.686C150.825 278.837 150.175 277.831 149.707 276.67C149.239 275.509 149.005 274.252 149.005 272.9ZM183.371 263.8H186.439V279.244H193.667V282H183.371V263.8ZM209.791 272.9C209.791 274.148 210.051 275.266 210.571 276.254C211.109 277.225 211.845 277.987 212.781 278.542C213.717 279.097 214.783 279.374 215.979 279.374C217.193 279.374 218.259 279.097 219.177 278.542C220.113 277.987 220.841 277.225 221.361 276.254C221.899 275.266 222.167 274.148 222.167 272.9C222.167 271.652 221.907 270.543 221.387 269.572C220.867 268.584 220.139 267.813 219.203 267.258C218.285 266.703 217.21 266.426 215.979 266.426C214.783 266.426 213.717 266.703 212.781 267.258C211.845 267.813 211.109 268.584 210.571 269.572C210.051 270.543 209.791 271.652 209.791 272.9ZM206.541 272.9C206.541 271.531 206.775 270.274 207.243 269.13C207.711 267.986 208.37 266.998 209.219 266.166C210.086 265.317 211.091 264.658 212.235 264.19C213.397 263.722 214.645 263.488 215.979 263.488C217.349 263.488 218.605 263.722 219.749 264.19C220.893 264.658 221.89 265.317 222.739 266.166C223.606 266.998 224.273 267.986 224.741 269.13C225.209 270.274 225.443 271.531 225.443 272.9C225.443 274.252 225.209 275.509 224.741 276.67C224.273 277.831 223.615 278.837 222.765 279.686C221.916 280.535 220.911 281.203 219.749 281.688C218.605 282.156 217.349 282.39 215.979 282.39C214.627 282.39 213.371 282.156 212.209 281.688C211.048 281.203 210.043 280.535 209.193 279.686C208.361 278.837 207.711 277.831 207.243 276.67C206.775 275.509 206.541 274.252 206.541 272.9ZM249.565 275.084V272.484H258.327C258.362 273.819 258.188 275.084 257.807 276.28C257.426 277.459 256.854 278.507 256.091 279.426C255.328 280.345 254.375 281.073 253.231 281.61C252.104 282.13 250.822 282.39 249.383 282.39C248.014 282.39 246.748 282.165 245.587 281.714C244.426 281.246 243.412 280.587 242.545 279.738C241.696 278.889 241.037 277.883 240.569 276.722C240.101 275.561 239.867 274.287 239.867 272.9C239.867 271.513 240.101 270.248 240.569 269.104C241.054 267.943 241.722 266.946 242.571 266.114C243.438 265.265 244.452 264.615 245.613 264.164C246.792 263.713 248.066 263.488 249.435 263.488C250.631 263.488 251.714 263.653 252.685 263.982C253.656 264.294 254.522 264.753 255.285 265.36C256.065 265.949 256.724 266.669 257.261 267.518L254.765 269.182C254.262 268.315 253.56 267.622 252.659 267.102C251.775 266.582 250.7 266.322 249.435 266.322C248.256 266.322 247.19 266.599 246.237 267.154C245.284 267.691 244.521 268.454 243.949 269.442C243.377 270.413 243.091 271.565 243.091 272.9C243.091 274.217 243.368 275.379 243.923 276.384C244.495 277.372 245.258 278.143 246.211 278.698C247.164 279.253 248.239 279.53 249.435 279.53C250.25 279.53 250.978 279.417 251.619 279.192C252.26 278.967 252.815 278.646 253.283 278.23C253.751 277.814 254.141 277.337 254.453 276.8C254.765 276.263 254.999 275.691 255.155 275.084H249.565ZM283.176 263.8H286.686L280.498 274.33V282H277.378V274.356L271.216 263.8H274.7L278.938 271.6L283.176 263.8Z" fill="white"/>
<defs>
<linearGradient id="paint0_linear_672_1721" x1="120.778" y1="87.3872" x2="120.778" y2="176.996" gradientUnits="userSpaceOnUse">
<stop stop-color="#1591F9"/>
<stop offset="1" stop-color="#02F2FA"/>
</linearGradient>
<linearGradient id="paint1_linear_672_1721" x1="186.208" y1="45.1013" x2="145.489" y2="166.867" gradientUnits="userSpaceOnUse">
<stop offset="0.61" stop-color="#02F2FA"/>
<stop offset="1" stop-color="#1496F9"/>
</linearGradient>
<linearGradient id="paint2_linear_672_1721" x1="100.151" y1="59.6612" x2="219.246" y2="83.6977" gradientUnits="userSpaceOnUse">
<stop offset="0.4" stop-color="#01F7FA"/>
<stop offset="1" stop-color="#158FF9"/>
</linearGradient>
<linearGradient id="paint3_linear_672_1721" x1="144.303" y1="12.0662" x2="55.7815" y2="119.142" gradientUnits="userSpaceOnUse">
<stop stop-color="#158FF9"/>
<stop offset="0.4" stop-color="#02F2FA"/>
<stop offset="0.69" stop-color="#02F2FA"/>
<stop offset="1" stop-color="#158FF9"/>
</linearGradient>
<linearGradient id="paint4_linear_672_1721" x1="153.668" y1="83.1239" x2="132.242" y2="94.483" gradientUnits="userSpaceOnUse">
<stop stop-color="#1494F9"/>
<stop offset="1" stop-color="#02F2FA"/>
</linearGradient>
<clipPath id="clip0_672_1721">
<rect width="175" height="177" fill="white" transform="translate(56)"/>
</clipPath>
</defs>
</svg>
