<svg width="636" height="216" viewBox="0 0 636 216" fill="none" xmlns="http://www.w3.org/2000/svg">
<g clip-path="url(#clip0_777_1613)">
<path d="M158.34 144.829C132.261 166.933 107.278 190.1 77.8449 207.28C62.2857 216.36 45.4995 219.011 28.1079 212.041C9.47287 204.596 1.24336 189.969 0.196265 170.761C-0.801747 152.584 5.3663 135.536 9.34198 118.16C10.1437 114.643 11.2889 111.207 12.5814 106.642C17.3588 111.992 21.6617 116.475 25.4574 121.351C26.4064 122.578 26.1446 125.13 25.7846 126.946C23.5105 138.497 20.7619 149.95 18.7168 161.534C16.8843 171.939 19.2403 181.184 27.6334 188.546C34.3577 194.436 42.1946 195.14 50.4732 194.665C64.8544 193.847 76.4706 185.912 88.7412 179.727C110.877 168.585 132.948 157.329 155.052 146.138C156.099 145.614 157.228 145.271 158.324 144.829H158.34Z" fill="white"/>
<path d="M145.088 55.0391C164.787 81.3642 184.829 107.427 203.987 134.129C212.511 146.023 215.603 160.159 213.198 174.803C209.304 198.477 191.995 213.284 167.928 213.611C146.561 213.89 126.502 207.001 104.464 201.602C110.305 196.432 114.935 192.015 119.991 188.137C121.152 187.237 123.786 188.006 125.684 188.366C138.429 190.755 151.076 194.125 163.936 195.483C180.329 197.201 192.175 186.059 192.682 169.616C193.009 159.292 190.146 149.705 185.352 140.428C171.086 112.827 157.212 85.0291 143.223 57.2805C143.076 57.0024 143.305 56.5443 143.354 56.1516C143.927 55.7753 144.515 55.399 145.088 55.0391Z" fill="white"/>
<path d="M200.371 108.245C196.118 103.37 191.782 98.8705 188.068 93.8803C187.054 92.506 187.528 89.6592 187.954 87.6304C190.211 76.7011 193.009 65.8864 194.989 54.9081C198.67 34.473 185.581 19.2244 164.934 20.7133C157.048 21.2859 148.835 23.6583 141.718 27.1432C112.923 41.2629 84.4875 56.1352 55.9214 70.7129C55.267 71.0402 54.5635 71.2856 53.3691 70.7784C60.6661 64.7902 67.8158 58.5893 75.309 52.8466C93.3714 39.005 111.27 24.9508 129.856 11.8291C142.978 2.56873 158.079 -1.99603 174.325 0.834451C200.797 5.46466 216.323 25.687 212.986 53.272C210.826 71.1056 205.738 88.5957 201.909 106.233C201.795 106.74 201.222 107.149 200.371 108.262V108.245Z" fill="white"/>
<path d="M108.309 14.4795C103.45 18.8152 99.245 22.9382 94.5985 26.4558C93.1915 27.5357 90.4428 27.4539 88.4632 27.0776C77.5014 24.967 66.6542 22.3165 55.6597 20.3531C33.458 16.3937 18.1606 30.4152 21.0728 52.6337C22.0545 60.1107 24.6231 67.7023 27.9444 74.5086C41.0331 101.341 54.7107 127.895 68.1594 154.564C68.6011 155.431 68.8956 156.363 69.8282 158.687C67.8976 157.1 66.9487 156.56 66.3106 155.742C49.0499 133.638 31.5929 111.665 14.6594 89.3154C5.67726 77.4863 -0.147205 64.1519 4.28234e-05 48.8052C0.261816 22.7091 17.6043 -0.523698 51.095 2.06136C69.55 3.48478 87.6779 9.14574 105.937 12.9252C106.476 13.0397 106.935 13.5633 108.309 14.4795Z" fill="white"/>
<path d="M119.581 105.808C119.483 114.152 112.759 120.86 104.513 120.892C96.3491 120.925 89.4448 114.037 89.363 105.824C89.2812 97.3652 96.48 90.2481 104.84 90.4935C113.266 90.7552 119.68 97.4142 119.581 105.808Z" fill="white"/>
</g>
<path d="M265.182 128.5H241L272.409 35.4091H302.364L333.773 128.5H309.591L287.727 58.8636H287L265.182 128.5ZM261.955 91.8636H312.5V108.955H261.955V91.8636ZM329.125 53.6818V35.4091H407.807V53.6818H379.58V128.5H357.398V53.6818H329.125ZM502.409 81.9545C502.409 92.197 500.439 100.879 496.5 108C492.561 115.121 487.227 120.53 480.5 124.227C473.803 127.924 466.288 129.773 457.955 129.773C449.591 129.773 442.061 127.909 435.364 124.182C428.667 120.455 423.348 115.045 419.409 107.955C415.5 100.833 413.545 92.1667 413.545 81.9545C413.545 71.7121 415.5 63.0303 419.409 55.9091C423.348 48.7879 428.667 43.3788 435.364 39.6818C442.061 35.9848 449.591 34.1364 457.955 34.1364C466.288 34.1364 473.803 35.9848 480.5 39.6818C487.227 43.3788 492.561 48.7879 496.5 55.9091C500.439 63.0303 502.409 71.7121 502.409 81.9545ZM479.409 81.9545C479.409 75.8939 478.545 70.7727 476.818 66.5909C475.121 62.4091 472.667 59.2424 469.455 57.0909C466.273 54.9394 462.439 53.8636 457.955 53.8636C453.5 53.8636 449.667 54.9394 446.455 57.0909C443.242 59.2424 440.773 62.4091 439.045 66.5909C437.348 70.7727 436.5 75.8939 436.5 81.9545C436.5 88.0151 437.348 93.1364 439.045 97.3182C440.773 101.5 443.242 104.667 446.455 106.818C449.667 108.97 453.5 110.045 457.955 110.045C462.439 110.045 466.273 108.97 469.455 106.818C472.667 104.667 475.121 101.5 476.818 97.3182C478.545 93.1364 479.409 88.0151 479.409 81.9545ZM515.545 35.4091H543.409L567.045 93.0455H568.136L591.773 35.4091H619.636V128.5H597.727V71.3182H596.955L574.591 127.909H560.591L538.227 71H537.455V128.5H515.545V35.4091Z" fill="white"/>
<path d="M238.288 177.224V173.3H255.856V177.224H249.196V198.5H244.912V177.224H238.288ZM278.857 198.5V194.756H291.565V198.5H278.857ZM278.857 177.044V173.3H291.565V177.044H278.857ZM278.857 186.836V183.164H290.845V186.836H278.857ZM276.229 173.3H280.405V198.5H276.229V173.3ZM317.207 185.9C317.207 187.676 317.603 189.236 318.395 190.58C319.211 191.924 320.267 192.968 321.563 193.712C322.883 194.432 324.311 194.792 325.847 194.792C327.047 194.792 328.127 194.636 329.087 194.324C330.047 194.012 330.911 193.592 331.679 193.064C332.471 192.512 333.155 191.9 333.731 191.228V196.268C332.675 197.132 331.535 197.792 330.311 198.248C329.087 198.704 327.551 198.932 325.703 198.932C323.855 198.932 322.127 198.62 320.519 197.996C318.935 197.372 317.555 196.472 316.379 195.296C315.203 194.12 314.279 192.74 313.607 191.156C312.959 189.548 312.635 187.796 312.635 185.9C312.635 184.004 312.959 182.264 313.607 180.68C314.279 179.072 315.203 177.68 316.379 176.504C317.555 175.328 318.935 174.428 320.519 173.804C322.127 173.18 323.855 172.868 325.703 172.868C327.551 172.868 329.087 173.096 330.311 173.552C331.535 174.008 332.675 174.668 333.731 175.532V180.572C333.155 179.9 332.471 179.3 331.679 178.772C330.911 178.22 330.047 177.788 329.087 177.476C328.127 177.164 327.047 177.008 325.847 177.008C324.311 177.008 322.883 177.38 321.563 178.124C320.267 178.844 319.211 179.876 318.395 181.22C317.603 182.54 317.207 184.1 317.207 185.9ZM357.938 186.944V183.02H375.902V186.944H357.938ZM373.166 173.3H377.414V198.5H373.166V173.3ZM356.246 173.3H360.494V198.5H356.246V173.3ZM418.711 173.3H422.887V199.76L404.491 181.58V198.5H400.315V172.04L418.711 190.22V173.3ZM448.815 185.9C448.815 187.628 449.175 189.176 449.895 190.544C450.639 191.888 451.659 192.944 452.955 193.712C454.251 194.48 455.727 194.864 457.383 194.864C459.063 194.864 460.539 194.48 461.811 193.712C463.107 192.944 464.115 191.888 464.835 190.544C465.579 189.176 465.951 187.628 465.951 185.9C465.951 184.172 465.591 182.636 464.871 181.292C464.151 179.924 463.143 178.856 461.847 178.088C460.575 177.32 459.087 176.936 457.383 176.936C455.727 176.936 454.251 177.32 452.955 178.088C451.659 178.856 450.639 179.924 449.895 181.292C449.175 182.636 448.815 184.172 448.815 185.9ZM444.315 185.9C444.315 184.004 444.639 182.264 445.287 180.68C445.935 179.096 446.847 177.728 448.023 176.576C449.223 175.4 450.615 174.488 452.199 173.84C453.807 173.192 455.535 172.868 457.383 172.868C459.279 172.868 461.019 173.192 462.603 173.84C464.187 174.488 465.567 175.4 466.743 176.576C467.943 177.728 468.867 179.096 469.515 180.68C470.163 182.264 470.487 184.004 470.487 185.9C470.487 187.772 470.163 189.512 469.515 191.12C468.867 192.728 467.955 194.12 466.779 195.296C465.603 196.472 464.211 197.396 462.603 198.068C461.019 198.716 459.279 199.04 457.383 199.04C455.511 199.04 453.771 198.716 452.163 198.068C450.555 197.396 449.163 196.472 447.987 195.296C446.835 194.12 445.935 192.728 445.287 191.12C444.639 189.512 444.315 187.772 444.315 185.9ZM491.898 173.3H496.146V194.684H506.154V198.5H491.898V173.3ZM528.48 185.9C528.48 187.628 528.84 189.176 529.56 190.544C530.304 191.888 531.324 192.944 532.62 193.712C533.916 194.48 535.392 194.864 537.048 194.864C538.728 194.864 540.204 194.48 541.476 193.712C542.772 192.944 543.78 191.888 544.5 190.544C545.244 189.176 545.616 187.628 545.616 185.9C545.616 184.172 545.256 182.636 544.536 181.292C543.816 179.924 542.808 178.856 541.512 178.088C540.24 177.32 538.752 176.936 537.048 176.936C535.392 176.936 533.916 177.32 532.62 178.088C531.324 178.856 530.304 179.924 529.56 181.292C528.84 182.636 528.48 184.172 528.48 185.9ZM523.98 185.9C523.98 184.004 524.304 182.264 524.952 180.68C525.6 179.096 526.512 177.728 527.688 176.576C528.888 175.4 530.28 174.488 531.864 173.84C533.472 173.192 535.2 172.868 537.048 172.868C538.944 172.868 540.684 173.192 542.268 173.84C543.852 174.488 545.232 175.4 546.408 176.576C547.608 177.728 548.532 179.096 549.18 180.68C549.828 182.264 550.152 184.004 550.152 185.9C550.152 187.772 549.828 189.512 549.18 191.12C548.532 192.728 547.62 194.12 546.444 195.296C545.268 196.472 543.876 197.396 542.268 198.068C540.684 198.716 538.944 199.04 537.048 199.04C535.176 199.04 533.436 198.716 531.828 198.068C530.22 197.396 528.828 196.472 527.652 195.296C526.5 194.12 525.6 192.728 524.952 191.12C524.304 189.512 523.98 187.772 523.98 185.9ZM583.552 188.924V185.324H595.684C595.732 187.172 595.492 188.924 594.964 190.58C594.436 192.212 593.644 193.664 592.588 194.936C591.532 196.208 590.212 197.216 588.628 197.96C587.068 198.68 585.292 199.04 583.3 199.04C581.404 199.04 579.652 198.728 578.044 198.104C576.436 197.456 575.032 196.544 573.832 195.368C572.656 194.192 571.744 192.8 571.096 191.192C570.448 189.584 570.124 187.82 570.124 185.9C570.124 183.98 570.448 182.228 571.096 180.644C571.768 179.036 572.692 177.656 573.868 176.504C575.068 175.328 576.472 174.428 578.08 173.804C579.712 173.18 581.476 172.868 583.372 172.868C585.028 172.868 586.528 173.096 587.872 173.552C589.216 173.984 590.416 174.62 591.472 175.46C592.552 176.276 593.464 177.272 594.208 178.448L590.752 180.752C590.056 179.552 589.084 178.592 587.836 177.872C586.612 177.152 585.124 176.792 583.372 176.792C581.74 176.792 580.264 177.176 578.944 177.944C577.624 178.688 576.568 179.744 575.776 181.112C574.984 182.456 574.588 184.052 574.588 185.9C574.588 187.724 574.972 189.332 575.74 190.724C576.532 192.092 577.588 193.16 578.908 193.928C580.228 194.696 581.716 195.08 583.372 195.08C584.5 195.08 585.508 194.924 586.396 194.612C587.284 194.3 588.052 193.856 588.7 193.28C589.348 192.704 589.888 192.044 590.32 191.3C590.752 190.556 591.076 189.764 591.292 188.924H583.552ZM630.09 173.3H634.95L626.382 187.88V198.5H622.062V187.916L613.53 173.3H618.354L624.222 184.1L630.09 173.3Z" fill="white"/>
<defs>
<clipPath id="clip0_777_1613">
<rect width="214" height="216" fill="white"/>
</clipPath>
</defs>
</svg>
