<svg width="131" height="133" viewBox="0 0 131 133" fill="none" xmlns="http://www.w3.org/2000/svg">
<g clip-path="url(#clip0_671_1666)">
<path d="M96.78 88.5199C80.84 102.03 65.57 116.19 47.58 126.69C38.07 132.24 27.81 133.86 17.18 129.6C5.78999 125.05 0.759992 116.11 0.119992 104.37C-0.490008 93.2599 3.27999 82.8399 5.70999 72.2199C6.19999 70.0699 6.89999 67.9699 7.68999 65.1799C10.61 68.4499 13.24 71.1899 15.56 74.1699C16.14 74.9199 15.98 76.4799 15.76 77.5899C14.37 84.6499 12.69 91.6499 11.44 98.7299C10.32 105.09 11.76 110.74 16.89 115.24C21 118.84 25.79 119.27 30.85 118.98C39.64 118.48 46.74 113.63 54.24 109.85C67.77 103.04 81.26 96.1599 94.77 89.3199C95.41 88.9999 96.1 88.7899 96.77 88.5199H96.78Z" fill="url(#paint0_linear_671_1666)"/>
<path d="M88.6801 33.6399C100.72 49.7299 112.97 65.6599 124.68 81.9799C129.89 89.2499 131.78 97.8899 130.31 106.84C127.93 121.31 117.35 130.36 102.64 130.56C89.5801 130.73 77.3201 126.52 63.8501 123.22C67.4201 120.06 70.2501 117.36 73.3401 114.99C74.0501 114.44 75.6601 114.91 76.8201 115.13C84.6101 116.59 92.3401 118.65 100.2 119.48C110.22 120.53 117.46 113.72 117.77 103.67C117.97 97.3599 116.22 91.4999 113.29 85.8299C104.57 68.9599 96.0901 51.9699 87.5401 35.0099C87.4501 34.8399 87.5901 34.5599 87.6201 34.3199C87.9701 34.0899 88.3301 33.8599 88.6801 33.6399Z" fill="url(#paint1_linear_671_1666)"/>
<path d="M122.47 66.16C119.87 63.18 117.22 60.43 114.95 57.38C114.33 56.54 114.62 54.8 114.88 53.56C116.26 46.88 117.97 40.27 119.18 33.56C121.43 21.07 113.43 11.75 100.81 12.66C95.9901 13.01 90.9701 14.46 86.6201 16.59C69.0201 25.22 51.6401 34.31 34.1801 43.22C33.7801 43.42 33.3501 43.57 32.6201 43.26C37.0801 39.6 41.4501 35.81 46.0301 32.3C57.0701 23.84 68.0101 15.25 79.3701 7.23005C87.3901 1.57005 96.6201 -1.21995 106.55 0.510046C122.73 3.34005 132.22 15.7 130.18 32.56C128.86 43.46 125.75 54.15 123.41 64.93C123.34 65.24 122.99 65.49 122.47 66.17V66.16Z" fill="url(#paint2_linear_671_1666)"/>
<path d="M66.2 8.85012C63.23 11.5001 60.66 14.0201 57.82 16.1701C56.96 16.8301 55.28 16.7801 54.07 16.5501C47.37 15.2601 40.74 13.6401 34.02 12.4401C20.45 10.0201 11.1 18.5901 12.88 32.1701C13.48 36.7401 15.05 41.3801 17.08 45.5401C25.08 61.9401 33.44 78.1701 41.66 94.4701C41.93 95.0001 42.11 95.5701 42.68 96.9901C41.5 96.0201 40.92 95.6901 40.53 95.1901C29.98 81.6801 19.31 68.2501 8.95996 54.5901C3.46996 47.3601 -0.0900414 39.2101 -4.13635e-05 29.8301C0.159959 13.8801 10.76 -0.319879 31.23 1.26012C42.51 2.13012 53.59 5.59012 64.75 7.90012C65.08 7.97012 65.36 8.29012 66.2 8.85012Z" fill="url(#paint3_linear_671_1666)"/>
<path d="M73.09 64.6699C73.03 69.7699 68.9201 73.8699 63.8801 73.8899C58.8901 73.9099 54.6701 69.6999 54.6201 64.6799C54.5701 59.5099 58.9701 55.1599 64.0801 55.3099C69.2301 55.4699 73.15 59.5399 73.09 64.6699Z" fill="url(#paint4_linear_671_1666)"/>
</g>
<defs>
<linearGradient id="paint0_linear_671_1666" x1="48.4171" y1="65.1799" x2="48.4171" y2="132.017" gradientUnits="userSpaceOnUse">
<stop stop-color="#1591F9"/>
<stop offset="1" stop-color="#02F2FA"/>
</linearGradient>
<linearGradient id="paint1_linear_671_1666" x1="97.3215" y1="33.6399" x2="67" y2="124.5" gradientUnits="userSpaceOnUse">
<stop offset="0.61" stop-color="#02F2FA"/>
<stop offset="1" stop-color="#1496F9"/>
</linearGradient>
<linearGradient id="paint2_linear_671_1666" x1="33" y1="44.5" x2="122" y2="62.5" gradientUnits="userSpaceOnUse">
<stop offset="0.4" stop-color="#01F7FA"/>
<stop offset="1" stop-color="#158FF9"/>
</linearGradient>
<linearGradient id="paint3_linear_671_1666" x1="66" y1="9" x2="1.47318e-06" y2="89" gradientUnits="userSpaceOnUse">
<stop stop-color="#158FF9"/>
<stop offset="0.4" stop-color="#02F2FA"/>
<stop offset="0.69" stop-color="#02F2FA"/>
<stop offset="1" stop-color="#158FF9"/>
</linearGradient>
<linearGradient id="paint4_linear_671_1666" x1="73" y1="62" x2="57" y2="70.5" gradientUnits="userSpaceOnUse">
<stop stop-color="#1494F9"/>
<stop offset="1" stop-color="#02F2FA"/>
</linearGradient>
<clipPath id="clip0_671_1666">
<rect width="130.8" height="132.02" fill="white"/>
</clipPath>
</defs>
</svg>
