<svg width="485" height="508" viewBox="0 0 485 508" fill="none" xmlns="http://www.w3.org/2000/svg">
<path d="M131.955 420.972C136.225 420.972 139.726 424.473 139.726 428.743C139.726 433.013 136.225 436.514 131.955 436.514C127.685 436.514 124.184 433.013 124.184 428.743C124.184 424.473 127.685 420.972 131.955 420.972Z" fill="#00FEFB"/>
<path d="M390.281 453.679C394.551 453.679 398.052 457.18 398.052 461.45C398.052 465.72 394.551 469.221 390.281 469.221C386.011 469.221 382.51 465.72 382.51 461.45C382.51 457.18 386.011 453.679 390.281 453.679Z" fill="#00FEFB"/>
<path d="M13.1638 437.282C17.4336 437.282 20.9349 440.784 20.9349 445.054C20.9349 449.323 17.4336 452.825 13.1638 452.825C8.89388 452.825 5.39258 449.323 5.39258 445.054C5.39258 440.784 8.89388 437.282 13.1638 437.282Z" fill="#00FEFB"/>
<path d="M301.549 437.283H182.761C168.158 437.283 156.117 425.242 156.117 410.553V404.49C156.117 401.928 158.679 399.366 161.241 399.366H323.155C325.717 399.366 328.279 401.928 328.279 404.49V410.553C328.279 425.156 316.238 437.283 301.635 437.283H301.549ZM167.304 409.785C167.304 419.264 174.221 426.096 182.761 426.096H302.403C311.028 426.096 317.86 419.178 317.86 410.639V409.785H167.219H167.304Z" fill="#00FEFB"/>
<path d="M280.028 480.323H204.28C201.718 480.323 199.156 477.761 199.156 475.114V432.073C199.156 429.511 201.718 426.949 204.28 426.949H280.028C282.59 426.949 285.152 429.511 285.152 432.073V475.114C285.152 477.676 282.59 480.323 280.028 480.323ZM210.343 469.136H274.904V436.428H210.343V469.136Z" fill="#00FEFB"/>
<path d="M325.716 507.053H158.678C148.345 507.053 139.72 498.428 139.72 488.094C139.72 477.761 148.345 469.136 158.678 469.136H325.716C336.049 469.136 344.674 477.761 344.674 488.094C344.674 498.428 336.049 507.053 325.716 507.053ZM158.678 480.323C154.408 480.323 150.907 483.739 150.907 488.094C150.907 492.45 154.323 495.866 158.678 495.866H325.716C329.986 495.866 333.487 492.45 333.487 488.094C333.487 483.739 330.071 480.323 325.716 480.323H158.678Z" fill="#00FEFB"/>
<path d="M75.1617 507.053C54.4954 507.053 37.2451 489.803 37.2451 469.136C37.2451 448.47 54.4954 431.22 75.1617 431.22C95.8279 431.22 113.078 448.47 113.078 469.136C113.078 489.803 95.8279 507.053 75.1617 507.053ZM75.1617 442.492C60.5587 442.492 48.5176 454.533 48.5176 469.136C48.5176 483.739 60.5587 495.866 75.1617 495.866C89.7647 495.866 101.891 483.825 101.891 469.136C102.745 454.533 89.8501 442.492 75.1617 442.492Z" fill="#00FEFB"/>
<path d="M459.965 447.615C464.234 447.615 467.736 451.117 467.736 455.387C467.736 459.656 464.234 463.158 459.965 463.158C455.695 463.158 452.193 459.656 452.193 455.387C452.193 451.117 455.695 447.615 459.965 447.615Z" fill="#00FEFB"/>
<path d="M352.363 17.1267C356.633 17.1267 360.134 20.628 360.134 24.8979C360.134 29.1678 356.633 32.6691 352.363 32.6691C348.093 32.6691 344.592 29.1678 344.592 24.8979C344.592 20.628 348.093 17.1267 352.363 17.1267Z" fill="#00FEFB"/>
<path d="M110.431 23.1891C114.701 23.1891 118.203 26.6904 118.203 30.9603C118.203 35.2302 114.701 38.7315 110.431 38.7315C106.161 38.7315 102.66 35.2302 102.66 30.9603C102.66 26.6904 106.161 23.1891 110.431 23.1891Z" fill="#00FEFB"/>
<path d="M374.738 253.934C373.03 253.934 372.176 253.081 371.322 252.227L329.99 210.894C328.282 209.186 328.282 205.77 329.99 203.123C331.698 201.415 335.114 201.415 337.761 203.123L379.094 244.455C380.802 246.163 380.802 249.665 379.094 252.227C378.24 253.081 376.532 253.934 374.824 253.934H374.738Z" fill="#00FEFB"/>
<path d="M244.761 308.162C242.199 308.162 239.552 305.6 239.552 303.038V245.395C239.552 242.833 242.114 240.186 244.761 240.186C247.408 240.186 249.885 242.747 249.885 245.395V303.038C249.885 305.6 247.323 308.162 244.761 308.162Z" fill="#00FEFB"/>
<path d="M112.998 253.934C111.29 253.934 110.436 253.081 109.582 252.227C107.874 250.519 107.874 247.017 109.582 244.455L150.914 203.123C152.622 201.415 156.123 201.415 158.685 203.123C160.393 204.831 160.393 208.247 158.685 210.894L117.353 252.227C116.499 253.081 114.791 253.934 113.083 253.934H112.998Z" fill="#00FEFB"/>
<path d="M379.09 200.561C378.236 200.561 377.382 200.561 376.528 199.707L351.592 185.104C349.03 183.396 348.176 179.894 349.884 177.332C351.592 174.77 355.093 173.916 357.655 175.624L382.591 190.227C385.153 191.935 386.007 195.437 384.299 197.999C383.445 199.707 381.737 200.561 379.09 200.561Z" fill="#00FEFB"/>
<path d="M322.22 257.35C320.512 257.35 318.805 256.496 317.951 254.788L303.348 229.852C301.64 227.29 302.494 223.788 305.056 222.08C307.617 220.373 311.119 221.227 312.827 223.788L327.43 248.725C329.138 251.286 328.284 254.788 325.722 256.496C324.014 257.35 323.16 257.35 322.306 257.35H322.22Z" fill="#00FEFB"/>
<path d="M284.388 273.747C281.826 273.747 280.118 272.039 279.178 269.477L272.261 241.039C271.407 238.477 273.115 234.976 275.677 234.122C278.239 233.268 281.74 234.976 282.594 237.538L289.512 266.829C290.366 269.391 288.658 272.893 286.096 273.747C285.242 272.893 285.242 273.747 284.388 273.747Z" fill="#00FEFB"/>
<path d="M204.284 273.746H202.577C200.015 272.892 198.307 270.33 199.161 266.829L206.932 239.245C207.786 236.683 210.348 234.975 213.849 235.829C216.411 236.683 218.119 239.245 217.265 242.747L209.494 270.33C208.64 272.038 206.078 273.746 204.284 273.746Z" fill="#00FEFB"/>
<path d="M166.45 257.35C165.596 257.35 164.743 257.35 163.889 256.496C161.327 254.788 160.473 251.286 162.181 248.725L176.784 223.788C178.492 221.227 181.907 220.373 184.555 222.08C187.117 223.788 187.971 227.29 186.263 229.852L171.66 254.788C169.952 256.496 168.244 257.35 166.536 257.35H166.45Z" fill="#00FEFB"/>
<path d="M109.579 200.561C107.871 200.561 106.163 199.707 105.309 197.999C103.602 195.437 104.456 192.021 107.017 190.227L131.954 175.624C134.515 173.916 138.017 174.77 139.725 177.332C141.433 179.894 140.579 183.396 138.017 185.104L113.081 199.707C111.373 200.561 110.519 200.561 109.665 200.561H109.579Z" fill="#00FEFB"/>
<path d="M244.764 226.35C225.806 226.35 208.641 214.309 195.66 191.935C183.619 170.415 176.702 142.831 176.702 113.626C176.702 84.4195 183.619 55.9821 195.66 35.3159C208.555 12.9417 225.806 0.900635 244.764 0.900635C263.722 0.900635 280.887 12.9417 293.868 35.3159C305.909 56.8361 312.826 84.4195 312.826 113.626C312.826 142.831 305.909 171.269 293.868 191.935C280.973 214.309 262.868 226.35 244.764 226.35ZM244.764 12.0023C230.161 12.0023 215.473 22.3354 204.286 40.4397C193.098 60.252 186.181 86.0421 186.181 113.626C186.181 141.209 192.245 166.999 204.286 186.811C215.473 205.77 229.222 215.249 244.764 215.249C260.306 215.249 274.055 204.916 285.243 186.811C296.43 166.999 303.347 141.209 303.347 113.626C303.347 86.0421 297.284 60.252 285.243 40.4397C273.201 22.3354 259.452 12.0023 244.764 12.0023Z" fill="#00FEFB"/>
<path d="M244.763 78.2709C213.763 78.2709 184.472 66.2298 162.952 43.0016C161.244 41.2937 161.244 37.7924 162.952 35.2304C164.66 33.5225 168.076 33.5225 170.723 35.2304C190.535 55.8967 216.325 67.0838 244.763 67.0838C273.2 67.0838 298.99 55.8967 318.803 35.2304C320.51 33.5225 323.926 32.6685 326.574 35.2304C328.282 36.9384 329.136 40.3543 326.574 43.0016C304.2 66.2298 275.762 78.2709 244.763 78.2709Z" fill="#00FEFB"/>
<path d="M322.221 193.643C320.513 193.643 319.659 192.789 317.951 191.935C298.139 171.269 272.349 160.082 243.912 160.082C215.474 160.082 189.684 171.269 170.726 191.081C169.018 192.789 165.517 193.643 162.955 191.081C161.247 189.373 160.393 185.957 162.955 183.31C184.475 160.936 212.912 148.895 243.912 148.895C274.911 148.895 304.202 160.936 325.723 184.164C327.431 185.872 327.431 189.373 325.723 191.935C324.869 192.789 323.161 193.643 322.307 193.643H322.221Z" fill="#00FEFB"/>
<path d="M351.51 118.749H137.077C134.515 118.749 131.953 116.187 131.953 113.626C131.953 111.064 134.515 108.416 137.077 108.416H351.51C354.072 108.416 356.634 110.978 356.634 113.626C357.488 117.041 354.926 118.749 351.51 118.749Z" fill="#00FEFB"/>
<path d="M244.761 226.351C242.199 226.351 239.552 223.789 239.552 221.227V6.8788C239.552 4.31687 242.114 1.66956 244.761 1.66956C247.408 1.66956 249.885 4.23147 249.885 6.8788V221.227C249.885 223.789 247.323 226.351 244.761 226.351Z" fill="#00FEFB"/>
<path d="M444.506 409.784H39.8071C17.4329 409.784 0.182617 391.68 0.182617 370.16V105.854C0.182617 83.4798 18.2869 66.2295 39.8071 66.2295H145.7C148.262 66.2295 150.824 68.7914 150.824 71.4388C150.824 74.0861 148.262 76.5626 145.7 76.5626H39.8071C23.4962 76.5626 10.5157 89.4576 10.5157 105.854V370.16C10.5157 386.471 23.4108 399.451 39.8071 399.451H444.506C460.903 399.451 473.798 386.556 473.798 370.16V105.854C473.798 89.4576 460.903 76.5626 444.506 76.5626H342.883C340.321 76.5626 337.759 74.0007 337.759 71.4388C337.759 68.8768 340.321 66.2295 342.883 66.2295H444.506C466.881 66.2295 484.131 84.3338 484.131 105.854V370.16C484.131 392.534 466.881 409.784 444.506 409.784ZM242.199 388.264C233.574 388.264 225.803 381.347 225.803 371.868C225.803 362.388 232.72 355.471 242.199 355.471C251.679 355.471 258.596 362.388 258.596 371.868C258.596 381.347 250.825 388.264 242.199 388.264ZM242.199 366.744C239.638 366.744 237.076 369.306 237.076 371.868C237.076 374.43 239.638 377.077 242.199 377.077C244.761 377.077 247.323 374.515 247.323 371.868C247.323 369.22 244.761 366.744 242.199 366.744ZM447.068 345.138H38.0992C35.5372 345.138 32.8899 342.576 32.8899 339.929V103.121C32.8899 100.559 35.4518 97.912 38.0992 97.912H138.014C140.576 97.912 143.138 100.474 143.138 103.121C143.138 105.769 140.576 108.245 138.014 108.245H43.3084V334.72H441.945V108.245H351.508C348.947 108.245 346.299 105.683 346.299 103.121C346.299 100.559 348.861 97.912 351.508 97.912H447.068C449.63 97.912 452.192 100.474 452.192 103.121V339.929C452.192 342.491 449.63 345.138 447.068 345.138Z" fill="#00FEFB"/>
<path d="M244.763 226.351C182.765 226.351 131.953 175.539 131.953 113.54C131.953 51.5416 182.765 0.72998 244.763 0.72998C306.762 0.72998 357.574 51.5416 357.574 113.54C357.574 175.539 306.762 226.351 244.763 226.351ZM244.763 12.0025C188.828 12.0025 143.14 57.6048 143.14 113.626C143.14 169.646 188.743 215.249 244.763 215.249C300.784 215.249 346.387 169.646 346.387 113.626C346.387 57.6048 300.784 12.0025 244.763 12.0025Z" fill="#00FEFB"/>
<path d="M430.757 49.8341C418.716 49.8341 409.237 40.355 409.237 28.3139C409.237 16.2728 418.716 6.7937 430.757 6.7937C442.799 6.7937 452.278 16.2728 452.278 28.3139C452.278 40.355 442.799 49.8341 430.757 49.8341ZM430.757 17.1268C424.694 17.1268 419.57 22.2507 419.57 28.3139C419.57 34.3771 424.694 39.501 430.757 39.501C436.821 39.501 441.945 34.2917 441.945 28.3139C441.091 22.2507 436.821 17.1268 430.757 17.1268Z" fill="#00FEFB"/>
</svg>
