<svg width="500" height="507" viewBox="0 0 500 507" fill="none" xmlns="http://www.w3.org/2000/svg">
<path d="M446.123 430.689H54.1453C24.8983 430.689 0 406.644 0 376.544C0 373.986 2.55805 371.428 5.1161 371.428H494.3C496.858 371.428 499.501 373.986 499.501 376.544C500.354 406.644 476.308 430.689 446.209 430.689H446.123ZM11.1701 382.513C13.7282 404 31.805 420.372 54.1453 420.372H446.123C467.611 420.372 486.54 404 489.098 382.513H11.1701Z" fill="#00FEFB"/>
<path d="M381.659 506.322C367.078 506.322 354.97 494.3 354.97 479.633C354.97 464.967 366.993 453.03 381.659 453.03C396.325 453.03 408.348 465.053 408.348 479.633C408.348 494.214 396.325 506.322 381.659 506.322ZM381.659 463.347C373.047 463.347 365.287 470.254 365.287 479.719C365.287 489.183 372.194 496.09 381.659 496.09C391.123 496.09 398.03 489.183 398.03 479.719C398.03 470.254 390.271 463.347 381.659 463.347Z" fill="#00FEFB"/>
<path d="M470.256 453.03C474.519 453.03 478.015 456.526 478.015 460.789C478.015 465.053 474.519 468.549 470.256 468.549C465.992 468.549 462.496 465.053 462.496 460.789C462.496 456.526 465.992 453.03 470.256 453.03Z" fill="#00FEFB"/>
<path d="M491.741 189.04C496.004 189.04 499.5 192.536 499.5 196.799C499.5 201.062 496.004 204.558 491.741 204.558C487.477 204.558 483.981 201.062 483.981 196.799C483.981 192.536 487.477 189.04 491.741 189.04Z" fill="#00FEFB"/>
<path d="M470.256 17.1388C474.519 17.1388 478.015 20.6348 478.015 24.8982C478.015 29.1616 474.519 32.6576 470.256 32.6576C465.992 32.6576 462.496 29.1616 462.496 24.8982C462.496 20.6348 465.992 17.1388 470.256 17.1388Z" fill="#00FEFB"/>
<path d="M336.13 49.7964C340.393 49.7964 343.889 53.2924 343.889 57.5558C343.889 61.8192 340.393 65.3152 336.13 65.3152C331.866 65.3152 328.37 61.8192 328.37 57.5558C328.37 53.2924 331.866 49.7964 336.13 49.7964Z" fill="#00FEFB"/>
<path d="M153.827 33.5099C158.09 33.5099 161.586 37.0059 161.586 41.2693C161.586 45.5327 158.09 49.0287 153.827 49.0287C149.563 49.0287 146.067 45.5327 146.067 41.2693C146.067 37.0059 149.563 33.5099 153.827 33.5099Z" fill="#00FEFB"/>
<path d="M8.6139 109.143C12.8773 109.143 16.3733 112.639 16.3733 116.903C16.3733 121.166 12.8773 124.662 8.6139 124.662C4.35049 124.662 0.854492 121.166 0.854492 116.903C0.854492 112.639 4.35049 109.143 8.6139 109.143Z" fill="#00FEFB"/>
<path d="M61.9039 463.347C66.1673 463.347 69.6633 466.843 69.6633 471.106C69.6633 475.369 66.1673 478.865 61.9039 478.865C57.6405 478.865 54.1445 475.369 54.1445 471.106C54.1445 466.843 57.6405 463.347 61.9039 463.347Z" fill="#00FEFB"/>
<path d="M271.672 463.347C275.935 463.347 279.431 466.843 279.431 471.106C279.431 475.369 275.935 478.865 271.672 478.865C267.408 478.865 263.912 475.369 263.912 471.106C263.912 466.843 267.408 463.347 271.672 463.347Z" fill="#00FEFB"/>
<path d="M462.496 382.513H37.7746C35.2166 382.513 32.5732 379.955 32.5732 377.312V137.452C32.5732 109.911 54.9135 86.7179 83.3078 86.7179H417.73C445.271 86.7179 468.464 109.058 468.464 137.452V377.312C467.612 379.87 465.054 382.513 462.41 382.513H462.496ZM42.976 372.196H456.527V137.538C456.527 115.197 438.45 97.9733 416.962 97.9733H83.3931C61.0528 97.9733 43.8286 116.05 43.8286 137.538V372.196H42.976Z" fill="#00FEFB"/>
<path d="M70.4351 65.3154C52.3582 65.3154 37.7773 50.7346 37.7773 32.6577C37.7773 14.5809 52.3582 0 70.4351 0C88.5119 0 103.093 14.5809 103.093 32.6577C103.093 50.7346 87.6592 65.3154 70.4351 65.3154ZM70.4351 12.0228C58.4122 12.0228 48.9475 21.4876 48.9475 33.5104C48.9475 45.5332 58.4122 54.998 70.4351 54.998C82.4579 54.998 91.9227 45.5332 91.9227 33.5104C91.9227 21.4876 81.6052 12.0228 70.4351 12.0228Z" fill="#00FEFB"/>
<path d="M251.035 344.654C217.525 344.654 190.836 295.625 190.836 233.72C190.836 171.815 217.525 122.786 251.035 122.786C284.546 122.786 311.235 171.815 311.235 233.72C311.235 295.625 284.546 344.654 251.035 344.654ZM251.035 134.041C224.346 134.041 201.153 179.575 201.153 233.805C201.153 288.036 224.346 333.569 251.035 333.569C277.724 333.569 300.917 288.036 300.917 233.805C300.917 179.575 277.724 134.041 251.035 134.041Z" fill="#00FEFB"/>
<path d="M251.03 199.357C220.93 199.357 191.683 187.334 171.049 164.993C169.343 163.288 169.343 159.792 171.049 157.234C172.754 155.529 176.25 155.529 178.808 157.234C197.738 177.016 223.488 188.186 251.03 188.186C278.572 188.186 304.323 177.016 323.252 157.234C324.958 155.529 328.368 154.676 331.012 157.234C332.717 158.939 333.57 162.435 331.012 164.993C309.524 187.334 281.13 199.357 251.03 199.357Z" fill="#00FEFB"/>
<path d="M326.663 311.995C324.957 311.995 324.105 311.143 322.399 310.29C303.47 290.508 277.719 279.338 250.177 279.338C222.635 279.338 196.884 290.508 177.955 310.29C176.25 311.995 172.839 312.848 170.196 310.29C168.49 308.585 167.637 305.174 170.196 302.531C190.83 281.043 219.225 269.02 250.177 269.02C281.129 269.02 309.524 281.043 330.159 303.383C331.864 305.089 331.864 308.499 330.159 311.143C329.306 311.995 328.453 311.995 326.748 311.995H326.663Z" fill="#00FEFB"/>
<path d="M355.913 239.773H145.301C142.743 239.773 140.1 237.215 140.1 234.572C140.1 231.929 142.658 229.456 145.301 229.456H355.913C358.471 229.456 361.03 232.014 361.03 234.572C361.03 237.13 358.471 239.773 355.913 239.773Z" fill="#00FEFB"/>
<path d="M251.032 344.654C248.474 344.654 245.916 342.096 245.916 339.538V128.925C245.916 126.367 248.474 123.724 251.032 123.724C253.59 123.724 256.148 126.282 256.148 128.925V339.538C256.148 342.096 253.59 344.654 251.032 344.654Z" fill="#00FEFB"/>
<path d="M251.034 344.654C189.981 344.654 140.1 294.772 140.1 233.72C140.1 172.668 189.981 122.786 251.034 122.786C312.086 122.786 361.967 172.668 361.967 233.72C361.115 295.625 311.233 344.654 251.034 344.654ZM251.034 134.041C196.036 134.041 151.27 178.722 151.27 233.805C151.27 288.888 195.95 333.569 251.034 333.569C306.117 333.569 350.797 288.888 350.797 233.805C350.797 178.722 306.117 134.041 251.034 134.041Z" fill="#00FEFB"/>
<path d="M429.84 334.336H354.207C351.649 334.336 349.006 331.778 349.006 329.22C349.006 326.662 351.564 324.019 354.207 324.019H429.84C432.398 324.019 435.041 326.577 435.041 329.22C435.041 331.863 433.336 334.336 429.84 334.336Z" fill="#00FEFB"/>
<path d="M429.842 307.733H370.495C367.937 307.733 365.379 305.175 365.379 302.532C365.379 299.888 367.937 297.415 370.495 297.415H429.842C432.4 297.415 435.043 299.973 435.043 302.532C435.043 305.09 433.338 307.733 429.842 307.733Z" fill="#00FEFB"/>
<path d="M429.839 280.191H381.662C379.104 280.191 376.461 277.633 376.461 275.075C376.461 272.517 379.019 269.874 381.662 269.874H429.839C432.397 269.874 435.04 272.432 435.04 275.075C435.04 277.718 433.335 280.191 429.839 280.191Z" fill="#00FEFB"/>
<path d="M429.837 253.587H386.862C384.304 253.587 381.746 251.029 381.746 248.471C381.746 245.913 384.304 243.355 386.862 243.355H429.837C432.395 243.355 435.039 245.913 435.039 248.471C435.891 251.029 433.333 253.587 429.837 253.587Z" fill="#00FEFB"/>
<path d="M145.298 334.336H69.6649C67.1069 334.336 64.5488 331.778 64.5488 329.22C64.5488 326.662 67.1069 324.019 69.6649 324.019H145.298C147.856 324.019 150.414 326.577 150.414 329.22C150.414 331.863 148.709 334.336 145.298 334.336Z" fill="#00FEFB"/>
<path d="M128.926 307.733H69.579C67.0209 307.733 64.4629 305.175 64.4629 302.532C64.4629 299.888 67.0209 297.415 69.579 297.415H128.926C131.484 297.415 134.042 299.973 134.042 302.532C134.042 305.09 132.336 307.733 128.926 307.733Z" fill="#00FEFB"/>
<path d="M118.61 280.191H70.4338C67.8757 280.191 65.2324 277.633 65.2324 275.075C65.2324 272.517 67.7905 269.874 70.4338 269.874H118.61C121.168 269.874 123.726 272.432 123.726 275.075C123.726 277.718 121.168 280.191 118.61 280.191Z" fill="#00FEFB"/>
<path d="M113.495 253.587H70.5197C67.9617 253.587 65.3184 251.029 65.3184 248.471C65.3184 245.913 67.8764 243.355 70.5197 243.355H113.495C116.053 243.355 118.696 245.913 118.696 248.471C118.696 251.029 116.138 253.587 113.495 253.587Z" fill="#00FEFB"/>
</svg>
