<svg width="500" height="507" viewBox="0 0 500 507" fill="none" xmlns="http://www.w3.org/2000/svg">
<path d="M446.345 431.301H54.367C25.12 431.301 0.22168 407.256 0.22168 377.156C0.22168 374.598 2.77973 372.04 5.33777 372.04H494.521C497.079 372.04 499.637 374.598 499.637 377.156C500.49 407.256 476.444 431.301 446.345 431.301ZM11.3918 383.125C13.9498 404.612 32.0267 420.984 54.367 420.984H446.345C467.832 420.984 486.762 404.612 489.32 383.125H11.3918Z" fill="#00FEFB"/>
<path d="M381.883 506.935C367.302 506.935 355.279 494.912 355.279 480.246C355.279 465.58 367.302 453.557 381.883 453.557C396.464 453.557 408.487 465.58 408.487 480.246C408.487 494.912 396.464 506.935 381.883 506.935ZM381.883 463.96C373.271 463.96 365.511 470.867 365.511 480.331C365.511 489.796 372.418 496.703 381.883 496.703C391.348 496.703 398.254 489.796 398.254 480.331C398.254 470.867 390.495 463.96 381.883 463.96Z" fill="#00FEFB"/>
<path d="M470.479 453.642C474.743 453.642 478.239 457.138 478.239 461.401C478.239 465.665 474.743 469.161 470.479 469.161C466.216 469.161 462.72 465.665 462.72 461.401C462.72 457.138 466.216 453.642 470.479 453.642Z" fill="#00FEFB"/>
<path d="M491.962 189.736C496.226 189.736 499.722 193.232 499.722 197.496C499.722 201.759 496.226 205.255 491.962 205.255C487.699 205.255 484.203 201.759 484.203 197.496C484.203 193.232 487.699 189.736 491.962 189.736Z" fill="#00FEFB"/>
<path d="M470.479 17.7509C474.743 17.7509 478.239 21.2468 478.239 25.5103C478.239 29.7737 474.743 33.2697 470.479 33.2697C466.216 33.2697 462.72 29.7737 462.72 25.5103C462.72 21.2468 466.216 17.7509 470.479 17.7509Z" fill="#00FEFB"/>
<path d="M400.809 45.2925C405.073 45.2925 408.569 48.7885 408.569 53.0519C408.569 57.3153 405.073 60.8113 400.809 60.8113C396.546 60.8113 393.05 57.3153 393.05 53.0519C393.05 48.7885 396.546 45.2925 400.809 45.2925Z" fill="#00FEFB"/>
<path d="M8.83362 109.756C13.097 109.756 16.593 113.252 16.593 117.515C16.593 121.778 13.097 125.274 8.83362 125.274C4.57021 125.274 1.07422 121.778 1.07422 117.515C1.07422 113.252 4.57021 109.756 8.83362 109.756Z" fill="#00FEFB"/>
<path d="M62.1285 463.959C66.392 463.959 69.8879 467.455 69.8879 471.718C69.8879 475.981 66.392 479.477 62.1285 479.477C57.8651 479.477 54.3691 475.981 54.3691 471.718C54.3691 467.455 57.8651 463.959 62.1285 463.959Z" fill="#00FEFB"/>
<path d="M271.888 463.959C276.152 463.959 279.648 467.455 279.648 471.718C279.648 475.981 276.152 479.477 271.888 479.477C267.625 479.477 264.129 475.981 264.129 471.718C264.129 467.455 267.625 463.959 271.888 463.959Z" fill="#00FEFB"/>
<path d="M80.9702 65.9276C62.8934 65.9276 48.3125 51.3467 48.3125 33.2699C48.3125 15.193 62.8934 0.612183 80.9702 0.612183C99.0471 0.612183 113.628 15.193 113.628 33.2699C113.628 51.3467 99.0471 65.9276 80.9702 65.9276ZM80.9702 12.635C68.9474 12.635 59.4826 22.0998 59.4826 34.1226C59.4826 46.1454 68.9474 55.6102 80.9702 55.6102C92.993 55.6102 102.458 46.1454 102.458 34.1226C102.458 22.0998 92.993 12.635 80.9702 12.635Z" fill="#00FEFB"/>
<path d="M430.058 334.948H354.425C351.867 334.948 349.309 332.39 349.309 329.832C349.309 327.274 351.867 324.631 354.425 324.631H430.058C432.616 324.631 435.174 327.189 435.174 329.832C435.174 332.476 433.468 334.948 430.058 334.948Z" fill="#00FEFB"/>
<path d="M430.057 308.344H370.71C368.152 308.344 365.509 305.786 365.509 303.228C365.509 300.67 368.067 298.112 370.71 298.112H430.057C432.615 298.112 435.173 300.67 435.173 303.228C435.173 305.786 433.468 308.344 430.057 308.344Z" fill="#00FEFB"/>
<path d="M462.718 383.125C460.16 383.125 457.517 380.567 457.517 378.009V138.15C457.517 115.809 439.44 98.5852 417.952 98.5852H371.566C369.008 98.5852 366.45 96.0272 366.45 93.4691C366.45 90.9111 369.008 88.353 371.566 88.353H417.952C445.494 88.353 468.687 110.693 468.687 139.088V378.947C467.834 380.652 465.276 383.21 462.633 383.21L462.718 383.125Z" fill="#00FEFB"/>
<path d="M37.997 383.125C35.4389 383.125 32.8809 380.567 32.8809 378.009V138.149C32.8809 110.608 55.2211 87.4148 83.6154 87.4148H136.055C138.613 87.4148 141.171 89.9728 141.171 92.5309C141.171 95.0889 138.613 97.7322 136.055 97.7322H83.6154C61.2752 97.7322 44.051 115.809 44.051 137.297V377.156C43.1983 380.567 41.4929 383.21 37.997 383.21V383.125Z" fill="#00FEFB"/>
<path d="M430.058 280.803H381.881C379.323 280.803 376.68 278.245 376.68 275.687C376.68 273.129 379.238 270.486 381.881 270.486H430.058C432.616 270.486 435.174 273.044 435.174 275.687C435.174 278.331 433.468 280.803 430.058 280.803Z" fill="#00FEFB"/>
<path d="M430.059 254.2H387.084C384.526 254.2 381.968 251.642 381.968 249.084C381.968 246.526 384.526 243.883 387.084 243.883H430.059C432.617 243.883 435.175 246.441 435.175 249.084C436.028 251.642 433.47 254.2 430.059 254.2Z" fill="#00FEFB"/>
<path d="M145.518 334.948H69.8846C67.3266 334.948 64.7686 332.39 64.7686 329.832C64.7686 327.274 67.3266 324.631 69.8846 324.631H145.518C148.076 324.631 150.719 327.189 150.719 329.832C150.719 332.476 149.014 334.948 145.518 334.948Z" fill="#00FEFB"/>
<path d="M129.147 308.344H69.8007C67.2426 308.344 64.6846 305.786 64.6846 303.228C64.6846 300.67 67.2426 298.112 69.8007 298.112H129.147C131.705 298.112 134.263 300.67 134.263 303.228C134.263 305.786 132.558 308.344 129.147 308.344Z" fill="#00FEFB"/>
<path d="M118.833 280.803H70.6561C68.0981 280.803 65.54 278.245 65.54 275.687C65.54 273.129 68.0981 270.486 70.6561 270.486H118.833C121.391 270.486 124.034 273.044 124.034 275.687C124.034 278.331 121.476 280.803 118.833 280.803Z" fill="#00FEFB"/>
<path d="M113.714 254.2H70.7391C68.1811 254.2 65.623 251.642 65.623 249.084C65.623 246.526 68.1811 243.883 70.7391 243.883H113.714C116.272 243.883 118.83 246.441 118.83 249.084C118.83 251.727 116.272 254.2 113.714 254.2Z" fill="#00FEFB"/>
<path d="M300.193 288.562H205.63C203.072 288.562 200.429 286.004 200.429 283.446V281.741C200.429 262.811 190.964 245.672 176.383 233.564C143.726 208.666 123.943 169.954 123.943 128.684C124.796 58.1676 183.29 0.611628 254.574 1.46431C288.937 2.31699 320.742 15.1925 344.873 40.176C368.919 64.2217 381.794 96.8794 381.794 130.475C381.794 171.745 362.865 208.666 330.207 233.65C314.773 244.82 305.309 263.749 305.309 282.679V283.531C305.309 286.089 303.603 288.648 300.193 288.648V288.562ZM210.832 278.245H295.077C296.782 257.61 307.099 237.828 323.471 225.805C353.57 203.465 370.709 169.102 370.709 131.242C370.709 66.7797 318.269 13.4871 253.807 13.4871C188.491 12.6344 135.199 65.0743 134.346 130.39C134.346 168.249 151.57 204.317 181.67 226.658C199.747 237.828 210.064 257.61 210.917 278.245H210.832Z" fill="#00FEFB"/>
<path d="M276.146 317.809H228.907C212.536 317.809 199.66 304.934 199.66 288.562V283.446C199.66 280.888 202.218 278.245 204.776 278.245H299.339C301.897 278.245 304.455 280.803 304.455 283.446V288.562C305.307 304.934 292.432 317.809 276.06 317.809H276.146ZM210.83 288.562C210.83 298.88 219.442 306.639 228.907 306.639H276.146C286.463 306.639 294.223 298.027 294.223 288.562H210.83Z" fill="#00FEFB"/>
<path d="M252.956 347.057C235.732 347.057 222.004 333.329 222.004 316.104V312.694C222.004 310.136 224.562 307.492 227.12 307.492H277.855C280.413 307.492 282.971 310.05 282.971 312.694V316.104C283.823 333.329 270.095 347.057 252.871 347.057H252.956ZM233.174 317.81C234.027 328.127 242.639 335.887 252.956 335.887C263.274 335.887 271.886 328.127 272.738 317.81H233.174Z" fill="#00FEFB"/>
<path d="M231.465 190.589C216.885 190.589 203.924 178.566 203.924 163.047C203.924 148.466 215.947 135.505 231.465 135.505C246.984 135.505 259.007 147.528 259.007 163.047C258.154 178.481 246.132 190.589 231.465 190.589ZM231.465 146.676C222.001 146.676 215.094 154.435 215.094 163.047C215.094 172.512 222.853 179.419 231.465 179.419C240.93 179.419 247.837 171.659 247.837 163.047C247.837 154.435 240.078 146.676 231.465 146.676Z" fill="#00FEFB"/>
<path d="M274.44 190.589C259.859 190.589 246.898 178.566 246.898 163.047C246.898 148.466 258.921 135.505 274.44 135.505C289.959 135.505 301.982 147.528 301.982 163.047C301.982 178.566 289.959 190.589 274.44 190.589ZM274.44 146.676C264.975 146.676 258.069 154.435 258.069 163.047C258.069 172.512 265.828 179.419 274.44 179.419C283.052 179.419 290.812 171.659 290.812 163.047C291.664 154.435 283.905 146.676 274.44 146.676Z" fill="#00FEFB"/>
<path d="M252.954 288.562C250.396 288.562 247.753 286.004 247.753 283.446V163.047C247.753 160.489 250.311 157.931 252.954 157.931C255.598 157.931 258.07 160.489 258.07 163.047V283.446C258.07 286.004 256.365 288.562 252.954 288.562Z" fill="#00FEFB"/>
</svg>
