<svg width="502" height="507" viewBox="0 0 502 507" fill="none" xmlns="http://www.w3.org/2000/svg">
<path d="M387.298 506.869H131.657C113.555 506.869 98.1006 492.269 98.1006 473.313V88.4848C98.1006 70.3833 112.701 54.9287 131.657 54.9287H168.714C171.275 54.9287 173.922 57.4902 173.922 60.1372C173.922 62.7841 171.361 65.2602 168.714 65.2602H131.657C119.618 65.2602 109.286 75.5918 109.286 87.631V473.313C109.286 485.353 119.618 495.684 131.657 495.684H388.237C400.277 495.684 410.608 485.353 410.608 473.313V88.4848C410.608 76.4456 400.277 66.1141 388.237 66.1141H351.181C348.619 66.1141 345.972 63.5525 345.972 60.991C345.972 58.4295 348.534 55.8679 351.181 55.8679H388.237C406.339 55.8679 421.794 70.4687 421.794 89.4241V473.399C420.94 491.5 405.4 506.955 387.384 506.955L387.298 506.869Z" fill="#00FEFB"/>
<path d="M318.39 97.9622H200.474C179.811 97.9622 162.563 80.7145 162.563 60.0515C162.563 39.3884 179.811 22.1407 200.474 22.1407H225.407C231.469 9.24763 245.216 0.623779 259.817 0.623779C274.417 0.623779 287.396 9.24763 294.227 22.1407H319.159C339.822 22.1407 357.07 39.3884 357.07 60.0515C357.07 80.7145 338.968 97.9622 318.305 97.9622H318.39ZM200.474 33.4115C185.873 33.4115 173.749 45.4507 173.749 60.1369C173.749 74.823 185.788 86.7769 200.474 86.7769H319.244C333.845 86.7769 345.97 74.7376 345.97 60.1369C345.97 45.5361 333.93 33.4115 319.244 33.4115H289.957C287.396 33.4115 285.688 31.7038 284.834 29.9961C281.419 19.6646 271.087 11.8945 259.902 11.8945C248.717 11.8945 238.385 18.8107 234.97 29.9961C234.116 31.7038 232.408 33.4115 229.847 33.4115H200.56H200.474Z" fill="#00FEFB"/>
<path d="M184.082 248.581C182.374 248.581 181.52 247.727 180.667 246.873C178.959 245.165 178.959 241.75 180.667 239.103L226.262 193.508C227.97 191.8 231.47 191.8 234.032 193.508L257.257 216.732L326.162 147.827C327.87 146.119 331.37 146.119 333.932 147.827C335.64 149.535 335.64 153.035 333.932 155.597L261.611 227.918C259.903 229.626 256.403 229.626 253.841 227.918L229.763 204.693L187.583 246.873C186.729 247.727 185.021 248.581 184.167 248.581H184.082Z" fill="#00FEFB"/>
<path d="M329.577 184.03C327.015 184.03 324.453 181.468 324.453 178.907V157.39H302.937C300.375 157.39 297.813 154.828 297.813 152.267C297.813 149.705 300.375 147.058 302.937 147.058H329.662C332.223 147.058 334.87 149.62 334.87 152.267V178.907C334.87 181.468 332.309 184.03 329.662 184.03H329.577Z" fill="#00FEFB"/>
<path d="M469.01 151.328C450.908 151.328 436.308 136.727 436.308 118.626C436.308 100.524 450.908 85.9236 469.01 85.9236C487.111 85.9236 501.712 100.524 501.712 118.626C501.712 136.727 487.111 151.328 469.01 151.328ZM469.01 97.9628C456.971 97.9628 447.493 107.441 447.493 119.48C447.493 131.519 456.971 140.997 469.01 140.997C481.049 140.997 490.527 131.519 490.527 119.48C490.527 107.441 481.049 97.9628 469.01 97.9628Z" fill="#00FEFB"/>
<path d="M38.5856 442.319C17.9225 442.319 0.674805 425.071 0.674805 404.408C0.674805 383.745 17.9225 366.497 38.5856 366.497C59.2487 366.497 76.4963 383.745 76.4963 404.408C76.4963 425.071 59.2487 442.319 38.5856 442.319ZM38.5856 377.768C23.9848 377.768 11.8602 389.807 11.8602 404.408C11.8602 419.009 23.8994 431.133 38.5856 431.133C53.2717 431.133 65.3109 419.094 65.3109 404.408C65.3109 389.722 53.2717 377.768 38.5856 377.768Z" fill="#00FEFB"/>
<path d="M444.933 205.547C449.202 205.547 452.703 209.047 452.703 213.317C452.703 217.586 449.202 221.087 444.933 221.087C440.664 221.087 437.163 217.586 437.163 213.317C437.163 209.047 440.664 205.547 444.933 205.547Z" fill="#00FEFB"/>
<path d="M471.659 372.56C475.928 372.56 479.429 376.06 479.429 380.33C479.429 384.599 475.928 388.1 471.659 388.1C467.389 388.1 463.889 384.599 463.889 380.33C463.889 376.06 467.389 372.56 471.659 372.56Z" fill="#00FEFB"/>
<path d="M30.9009 54.9287C35.1701 54.9287 38.6709 58.4295 38.6709 62.6987C38.6709 66.9679 35.1701 70.4687 30.9009 70.4687C26.6316 70.4687 23.1309 66.9679 23.1309 62.6987C23.1309 58.4295 26.6316 54.9287 30.9009 54.9287Z" fill="#00FEFB"/>
<path d="M68.727 210.755C72.9963 210.755 76.497 214.256 76.497 218.525C76.497 222.795 72.9963 226.295 68.727 226.295C64.4578 226.295 60.957 222.795 60.957 218.525C60.957 214.256 64.4578 210.755 68.727 210.755Z" fill="#00FEFB"/>
<path d="M19.7144 318.339C23.9836 318.339 27.4843 321.84 27.4843 326.109C27.4843 330.379 23.9836 333.879 19.7144 333.879C15.4451 333.879 11.9443 330.379 11.9443 326.109C11.9443 321.84 15.4451 318.339 19.7144 318.339Z" fill="#00FEFB"/>
<path d="M237.452 415.593H199.541C196.98 415.593 194.333 413.031 194.333 410.47V329.525C194.333 326.964 196.895 324.402 199.541 324.402H237.452C240.014 324.402 242.575 326.964 242.575 329.525V410.47C243.429 413.031 240.868 415.593 237.452 415.593ZM205.604 404.407H232.329V334.648H205.604V404.407Z" fill="#00FEFB"/>
<path d="M275.359 415.593H237.448C234.887 415.593 232.325 413.031 232.325 410.47V308.008C232.325 305.447 234.887 302.885 237.448 302.885H275.359C277.921 302.885 280.568 305.447 280.568 308.008V410.47C280.568 413.031 278.86 415.593 275.359 415.593ZM243.511 404.407H270.236V313.131H243.511V404.407Z" fill="#00FEFB"/>
<path d="M313.269 415.593H275.358C272.797 415.593 270.235 413.031 270.235 410.47V258.998C270.235 256.436 272.797 253.789 275.358 253.789H313.269C315.831 253.789 318.478 256.351 318.478 258.998V409.616C318.478 413.031 315.916 415.678 313.269 415.678V415.593ZM280.482 404.408H307.207V264.974H280.482V404.408Z" fill="#00FEFB"/>
<path d="M351.089 415.592H313.179C310.617 415.592 308.056 413.031 308.056 410.469V334.733C308.056 332.172 310.617 329.525 313.179 329.525H351.089C353.651 329.525 356.213 332.086 356.213 334.733V410.469C356.213 413.031 353.651 415.592 351.089 415.592ZM318.387 404.407H345.113V339.856H318.387V404.407Z" fill="#00FEFB"/>
<path d="M356.305 442.318H172.899C170.337 442.318 167.69 439.757 167.69 437.195V302.031C167.69 299.47 170.252 296.823 172.899 296.823C175.546 296.823 178.022 299.384 178.022 302.031V431.133H355.366C357.927 431.133 360.489 433.694 360.489 436.256C361.343 439.671 358.781 442.318 356.22 442.318H356.305Z" fill="#00FEFB"/>
</svg>
