<svg width="72" height="73" viewBox="0 0 72 73" fill="none" xmlns="http://www.w3.org/2000/svg">
<g clip-path="url(#clip0_679_5319)">
<path d="M53.2733 48.7266C44.499 56.1633 36.0935 63.9578 26.1908 69.7376C20.9559 72.7927 15.3082 73.6844 9.45683 71.3395C3.1871 68.8349 0.418295 63.9138 0.0660011 57.4514C-0.269779 51.3358 1.80545 45.6 3.14307 39.7541C3.41279 38.5706 3.79811 37.4147 4.23297 35.8789C5.84031 37.6789 7.28802 39.1872 8.56508 40.8275C8.88435 41.2404 8.79628 42.0991 8.67517 42.7101C7.91004 46.5963 6.98527 50.4496 6.29719 54.3468C5.68068 57.8477 6.47334 60.9578 9.29719 63.4349C11.5596 65.4165 14.1963 65.6532 16.9816 65.4936C21.8201 65.2184 25.7284 62.5486 29.8568 60.4679C37.3045 56.7193 44.7302 52.9321 52.1669 49.167C52.5192 48.9908 52.899 48.8752 53.2678 48.7266H53.2733Z" fill="url(#paint0_linear_679_5319)"/>
<path d="M48.8146 18.5173C55.4421 27.3742 62.1853 36.143 68.6311 45.1265C71.499 49.1283 72.5394 53.8843 71.7302 58.8109C70.4201 66.776 64.5963 71.7577 56.499 71.8678C49.31 71.9614 42.5614 69.6439 35.1467 67.8274C37.1119 66.088 38.6697 64.6017 40.3706 63.2972C40.7614 62.9944 41.6476 63.2531 42.2862 63.3742C46.5743 64.1779 50.8293 65.3118 55.1559 65.7687C60.6715 66.3467 64.6568 62.5981 64.8275 57.066C64.9376 53.5926 63.9743 50.3669 62.3614 47.2458C57.5614 37.9595 52.8935 28.6072 48.1871 19.2715C48.1376 19.1779 48.2146 19.0238 48.2311 18.8916C48.4238 18.765 48.622 18.6384 48.8146 18.5173Z" fill="url(#paint1_linear_679_5319)"/>
<path d="M67.4148 36.4184C65.9836 34.7781 64.5249 33.2643 63.2753 31.5854C62.934 31.123 63.0937 30.1652 63.2368 29.4827C63.9964 25.8056 64.9377 22.1671 65.6038 18.4735C66.8423 11.5983 62.4386 6.46798 55.4918 6.96889C52.8386 7.16155 50.0753 7.95972 47.6808 9.1322C37.9928 13.8827 28.4258 18.8863 18.8148 23.7909C18.5946 23.901 18.3579 23.9836 17.9561 23.8129C20.4111 21.7982 22.8166 19.712 25.3377 17.7799C31.4148 13.123 37.4368 8.39458 43.69 3.9799C48.1047 0.864306 53.1854 -0.671474 58.6515 0.28082C67.5579 1.83862 72.7817 8.64229 71.6588 17.923C70.9322 23.923 69.2203 29.8074 67.9322 35.7414C67.8937 35.912 67.701 36.0496 67.4148 36.4239V36.4184Z" fill="url(#paint2_linear_679_5319)"/>
<path d="M36.4403 4.87149C34.8054 6.33021 33.3908 7.71737 31.8275 8.90085C31.3541 9.26415 30.4293 9.23663 29.7632 9.11003C26.0752 8.39993 22.4256 7.50819 18.7265 6.84764C11.2568 5.51553 6.11003 10.233 7.08985 17.7082C7.42013 20.2238 8.28434 22.7779 9.40178 25.0678C13.8054 34.0953 18.4073 43.0293 22.9321 52.0018C23.0807 52.2935 23.1798 52.6073 23.4935 53.3889C22.844 52.855 22.5247 52.6733 22.31 52.3981C16.5027 44.9614 10.6293 37.5687 4.93205 30.0495C1.91003 26.0697 -0.0495999 21.5834 -5.8606e-05 16.4201C0.0880148 7.6403 5.92288 -0.176213 17.1908 0.693512C23.3999 1.17241 29.499 3.077 35.6421 4.34856C35.8238 4.38709 35.9779 4.56324 36.4403 4.87149Z" fill="url(#paint3_linear_679_5319)"/>
<path d="M40.2331 35.5982C40.2001 38.4056 37.9377 40.6624 35.1634 40.6734C32.4166 40.6845 30.0937 38.367 30.0662 35.6037C30.0386 32.7578 32.4606 30.3634 35.2735 30.4459C38.1084 30.534 40.2661 32.7744 40.2331 35.5982Z" fill="url(#paint4_linear_679_5319)"/>
</g>
<defs>
<linearGradient id="paint0_linear_679_5319" x1="26.6516" y1="35.8789" x2="26.6516" y2="72.6699" gradientUnits="userSpaceOnUse">
<stop stop-color="#1591F9"/>
<stop offset="1" stop-color="#02F2FA"/>
</linearGradient>
<linearGradient id="paint1_linear_679_5319" x1="53.5713" y1="18.5173" x2="36.8806" y2="68.5321" gradientUnits="userSpaceOnUse">
<stop offset="0.61" stop-color="#02F2FA"/>
<stop offset="1" stop-color="#1496F9"/>
</linearGradient>
<linearGradient id="paint2_linear_679_5319" x1="18.1652" y1="24.4955" x2="67.156" y2="34.4037" gradientUnits="userSpaceOnUse">
<stop offset="0.4" stop-color="#01F7FA"/>
<stop offset="1" stop-color="#158FF9"/>
</linearGradient>
<linearGradient id="paint3_linear_679_5319" x1="36.3302" y1="4.95399" x2="-3.51624e-05" y2="48.9907" gradientUnits="userSpaceOnUse">
<stop stop-color="#158FF9"/>
<stop offset="0.4" stop-color="#02F2FA"/>
<stop offset="0.69" stop-color="#02F2FA"/>
<stop offset="1" stop-color="#158FF9"/>
</linearGradient>
<linearGradient id="paint4_linear_679_5319" x1="40.1836" y1="34.1285" x2="31.3762" y2="38.8074" gradientUnits="userSpaceOnUse">
<stop stop-color="#1494F9"/>
<stop offset="1" stop-color="#02F2FA"/>
</linearGradient>
<clipPath id="clip0_679_5319">
<rect width="72" height="72.6716" fill="white"/>
</clipPath>
</defs>
</svg>
